<svg xmlns="http://www.w3.org/2000/svg" width="74" height="12" fill="none" viewBox="0 0 74 12">
  <path fill="#CBCBCB" fill-rule="evenodd" d="M15.428 0H0v12h15.428V0ZM2.572 10.286c-.293 0-.58-.03-.857-.086V1.8c.179-.036.361-.061.547-.075l.084-.004.065-.003a4.286 4.286 0 1 1 .162 8.568Zm10.286 0a4.071 4.071 0 0 0 .47-.025c.132-.015.26-.035.387-.061V1.8a4.35 4.35 0 0 0-.857-.086 4.286 4.286 0 0 0 0 8.572Z" clip-rule="evenodd"/>
  <path fill="#CBCBCB" d="m29.64 1.015-4.119 10.738h-2.19L19.21 1.015h2.284l2.977 8.208 2.962-8.208h2.207Zm3.964 10.738h-2.098V1.015h2.098v10.738ZM40.28 12c-1.255 0-2.278-.288-3.07-.864-.782-.576-1.29-1.378-1.527-2.407h2.098c.134.432.416.782.849 1.05.442.256.982.385 1.62.385.606 0 1.105-.113 1.496-.34.401-.236.602-.575.602-1.018 0-.257-.057-.478-.17-.663-.113-.196-.324-.36-.633-.494-.308-.144-.756-.262-1.342-.355L39 7.094c-.998-.165-1.749-.484-2.253-.957-.493-.473-.74-1.152-.74-2.036 0-.68.18-1.266.54-1.76.37-.503.864-.889 1.48-1.156.628-.278 1.328-.417 2.1-.417 1.12 0 2.061.267 2.822.802.762.525 1.23 1.296 1.404 2.315h-2.098a1.418 1.418 0 0 0-.71-.957c-.37-.216-.838-.324-1.404-.324-.627 0-1.12.118-1.48.355-.36.226-.54.545-.54.956 0 .37.133.659.4.864.278.206.823.376 1.636.51l1.157.185c2.109.34 3.163 1.383 3.163 3.132 0 .72-.18 1.337-.54 1.851-.36.504-.859.89-1.497 1.157-.627.257-1.347.386-2.16.386Zm8.57-.247h-2.098V1.015h2.098v10.738Zm7.726.247a5.656 5.656 0 0 1-2.191-.417 5.083 5.083 0 0 1-1.713-1.172 5.383 5.383 0 0 1-1.126-1.774 6.175 6.175 0 0 1-.401-2.253c0-.813.133-1.558.4-2.237a5.346 5.346 0 0 1 1.127-1.79 5.083 5.083 0 0 1 1.713-1.172 5.656 5.656 0 0 1 2.19-.417c.793 0 1.518.139 2.176.417a5.045 5.045 0 0 1 1.728 1.172c.494.504.874 1.1 1.142 1.79.267.679.4 1.424.4 2.237 0 .813-.133 1.563-.4 2.253a5.26 5.26 0 0 1-1.142 1.774 5.045 5.045 0 0 1-1.728 1.172 5.542 5.542 0 0 1-2.175.417Zm0-1.882c.648 0 1.218-.155 1.712-.463a3.221 3.221 0 0 0 1.173-1.312c.288-.565.432-1.218.432-1.959 0-.74-.144-1.389-.432-1.944a3.096 3.096 0 0 0-1.173-1.311c-.493-.32-1.064-.479-1.712-.479-.638 0-1.209.16-1.713.479a3.219 3.219 0 0 0-1.172 1.311c-.278.555-.417 1.203-.417 1.944 0 .74.139 1.394.416 1.96.288.555.68.992 1.173 1.31a3.214 3.214 0 0 0 1.713.464Zm7.742 1.635V1.015h2.037l5.323 7.529v-7.53h2.036v10.74h-2.036l-5.323-7.53v7.53h-2.037Z"/>
</svg>
