<svg xmlns="http://www.w3.org/2000/svg" width="37" height="16" fill="none" viewBox="0 0 37 16">
  <rect width="36" height="15" x=".5" y=".5" stroke="gray" rx="3.5"/>
  <path fill="#E5E5E5" d="M7.49 12V4.344h1.045v3.168h4.367V4.344h1.045V12h-1.045V8.447H8.535V12H7.49Zm8.433 0V4.344h2.76c.716 0 1.354.154 1.926.462a3.543 3.543 0 0 1 1.342 1.331c.33.583.495 1.254.495 2.035 0 .781-.165 1.452-.495 2.024a3.394 3.394 0 0 1-1.342 1.331c-.572.319-1.21.473-1.925.473h-2.761Zm1.045-.935h1.65c.506 0 .968-.11 1.386-.341a2.62 2.62 0 0 0 1-.99c.254-.429.375-.946.375-1.562 0-.616-.121-1.144-.374-1.573a2.591 2.591 0 0 0-1.001-.979 2.813 2.813 0 0 0-1.386-.341h-1.65v5.786Zm7.011.935V4.344h2.882c.98 0 1.716.209 2.222.627.495.418.748 1.001.748 1.738 0 .594-.154 1.078-.473 1.452a2.511 2.511 0 0 1-1.22.803L30.171 12H28.93l-1.903-2.871h-2.002V12H23.98Zm1.045-3.806h1.716c.693 0 1.2-.132 1.53-.396.33-.253.494-.627.494-1.1 0-.473-.165-.825-.495-1.067-.33-.231-.836-.352-1.529-.352h-1.716v2.915Z"/>
</svg>
