<svg xmlns="http://www.w3.org/2000/svg" width="73" height="16" fill="none" viewBox="0 0 73 16">
  <rect width="72" height="15" x=".5" y=".5" stroke="gray" rx="3.5"/>
  <path fill="#E5E5E5" d="M10.581 12.165c-.693 0-1.287-.143-1.76-.429a2.633 2.633 0 0 1-1.078-1.188c-.242-.517-.363-1.122-.363-1.815V4.344h1.045v4.301c0 .781.176 1.408.528 1.87.341.462.891.693 1.628.693.737 0 1.287-.231 1.639-.693.341-.462.517-1.089.517-1.87V4.344h1.045v4.389c0 .693-.121 1.298-.363 1.815a2.633 2.633 0 0 1-1.078 1.188c-.473.286-1.067.429-1.76.429ZM15.489 12V4.025h.98V12h-.98Zm4.656.044c-.54 0-.946-.154-1.232-.451-.286-.297-.43-.726-.43-1.298V7.248h-1v-.88h1V4.575c.32-.022.65-.088.98-.187v1.98h1.232v.88h-1.232v2.959c0 .308.077.539.23.704.144.165.353.253.628.253h.374v.88h-.55Zm2.715-2.893V12h-.98V6.368h.958v1.001c.176-.33.407-.583.693-.77a1.79 1.79 0 0 1 .957-.264h.176v.946h-.198c-.286 0-.55.066-.792.209a1.489 1.489 0 0 0-.594.627c-.143.275-.22.627-.22 1.034Zm4.341 3.003c-.583 0-1.045-.154-1.397-.473-.352-.308-.528-.726-.528-1.265 0-.572.21-1.023.627-1.342.407-.319 1.001-.473 1.76-.473h1.331v-.242c0-.451-.11-.781-.34-.979-.232-.187-.55-.286-.958-.286-.34 0-.616.066-.836.198-.22.132-.352.297-.407.484h-.99a1.83 1.83 0 0 1 .748-1.133c.396-.286.891-.429 1.496-.429.693 0 1.254.176 1.661.539.407.363.605.924.605 1.683V12h-.924v-.847a1.817 1.817 0 0 1-.803.748 2.22 2.22 0 0 1-1.045.253Zm.22-.858c.242 0 .484-.055.726-.165.242-.11.44-.275.605-.495.165-.209.242-.484.242-.814v-.418H27.73c-.462 0-.825.077-1.078.242a.817.817 0 0 0-.385.726c0 .297.11.528.32.682.208.165.494.242.835.242Zm6.882.704V4.344h1.044v3.168h4.367V4.344h1.046V12h-1.045V8.447h-4.368V12h-1.044Zm8.432 0V4.344h2.761c.715 0 1.353.154 1.925.462a3.543 3.543 0 0 1 1.342 1.331c.33.583.495 1.254.495 2.035 0 .781-.165 1.452-.495 2.024a3.394 3.394 0 0 1-1.342 1.331c-.572.319-1.21.473-1.925.473h-2.76Zm1.045-.935h1.65c.506 0 .968-.11 1.386-.341a2.62 2.62 0 0 0 1.001-.99c.253-.429.374-.946.374-1.562 0-.616-.12-1.144-.374-1.573a2.591 2.591 0 0 0-1-.979 2.813 2.813 0 0 0-1.387-.341h-1.65v5.786ZM56.56 12v-1.892h-3.872v-.781l3.927-4.983h.968v4.873h1.2v.891h-1.2V12H56.56Zm-2.75-2.783h2.75V5.73l-2.75 3.487ZM60.094 12V4.344h1.045v3.289l3.575-3.289h1.343l-4.038 3.685L66.243 12h-1.43L61.14 8.546V12h-1.045Z"/>
</svg>
