<svg width="140" height="52" viewBox="0 0 140 52" fill="none" xmlns="http://www.w3.org/2000/svg">
<rect width="140" height="52" rx="26" fill="#232323"/>
<circle cx="28" cy="26" r="17" stroke="white" stroke-opacity="0.5" stroke-width="2"/>
<path fill-rule="evenodd" clip-rule="evenodd" d="M28.2351 34.043V30.8627C28.2351 30.6481 28.2787 30.4309 28.3677 30.2292C29.7804 27.029 31.864 25.4601 33.8629 25.103C33.9118 25.0943 33.9515 25.0695 33.9736 25.0455C33.9836 25.0347 33.9872 25.0271 33.9881 25.0248L33.9884 19.8881C33.9884 19.8881 33.9866 19.8857 33.9847 19.8839C33.9766 19.8764 33.965 19.8716 33.9514 19.8724C32.3143 19.9714 31.2526 19.796 30.4388 19.5191C30.0383 19.3828 29.7143 19.2273 29.4417 19.0931C29.4178 19.0813 29.3945 19.0699 29.3718 19.0587C29.1252 18.937 28.9413 18.8464 28.7443 18.7765C28.6334 18.7372 28.2989 18.6879 27.7164 18.6613C27.1709 18.6363 26.4968 18.6336 25.7774 18.6454C24.3403 18.6689 22.7596 18.7499 21.7441 18.8174L21.7198 18.819H21.6954C21.5836 18.819 21.5137 18.8331 21.4738 18.8457C21.4364 18.8576 21.4234 18.8687 21.4214 18.8704C21.4194 18.8721 21.4139 18.8769 21.4054 18.8931C21.3959 18.9115 21.3823 18.9454 21.371 19.0019C21.3151 19.2801 21.3757 19.6847 21.4615 20.1622C21.5554 20.6848 21.2907 21.1393 20.939 21.3724C20.3262 21.7785 20.3103 22.2703 20.3642 22.4363C20.464 22.7435 20.4996 23.1994 20.2405 23.6058C19.985 24.0068 19.9923 24.2637 20.0308 24.4219C20.0777 24.6146 20.2084 24.8052 20.3945 24.9874C20.8135 25.3976 20.8629 26.024 20.6185 26.4918C20.5147 26.6904 20.5151 26.8196 20.5302 26.9012C20.5478 26.9959 20.601 27.1044 20.7044 27.2203C20.8084 27.3369 20.9412 27.4354 21.064 27.5029C21.1218 27.5347 21.1686 27.5548 21.1988 27.5656H25.3553V30.2826C25.3553 32.67 25.906 33.5555 26.359 33.8886C26.8247 34.2311 27.4732 34.2137 28.2351 34.043ZM25.4795 35.151C24.4155 34.3686 23.8442 32.8181 23.8442 30.2826V29.1181H21.1441C20.9794 29.1181 20.8259 29.0748 20.7199 29.0381C20.5999 28.9965 20.4744 28.9397 20.3506 28.8716C20.1052 28.7365 19.8288 28.5365 19.5904 28.2693C19.3514 28.0014 19.1291 27.6408 19.0458 27.1918C18.9715 26.7909 19.0176 26.3696 19.1963 25.9492C18.9481 25.6737 18.6847 25.2909 18.5649 24.7986C18.4187 24.1979 18.5109 23.5387 18.9108 22.8621C18.6613 21.9924 18.9959 20.9207 19.9325 20.2015C19.8625 19.7901 19.7867 19.2081 19.891 18.6882C19.9598 18.3455 20.1177 17.9643 20.4566 17.6755C20.7905 17.3909 21.2119 17.271 21.6691 17.2666C22.7021 17.1983 24.2957 17.1169 25.7533 17.093C26.4866 17.081 27.1948 17.0834 27.7836 17.1103C28.3354 17.1355 28.8872 17.1849 29.2371 17.3089C29.5216 17.4098 29.7852 17.5401 30.0178 17.6551C30.0438 17.6679 30.0694 17.6806 30.0945 17.693C30.3554 17.8214 30.6085 17.9414 30.9139 18.0453C31.5118 18.2488 32.3768 18.4124 33.8625 18.3226C34.7177 18.2708 35.4995 18.9542 35.4995 19.8876V25.024C35.4995 25.9065 34.8162 26.5085 34.1218 26.6326C32.7255 26.882 31.0027 28.0223 29.7462 30.8652V34.051C29.7462 34.7463 29.2897 35.3932 28.5866 35.5532C27.7798 35.7368 26.5255 35.9203 25.4795 35.151Z" fill="white"/>
<path fill-rule="evenodd" clip-rule="evenodd" d="M68.7649 17.9572V21.1375C68.7649 21.3521 68.7213 21.5694 68.6323 21.7711C67.2196 24.9712 65.136 26.5402 63.1371 26.8972C63.0882 26.906 63.0485 26.9308 63.0264 26.9547C63.0164 26.9656 63.0128 26.9732 63.0119 26.9754L63.0116 32.1122C63.0116 32.1122 63.0134 32.1145 63.0153 32.1164C63.0234 32.1239 63.035 32.1287 63.0486 32.1279C64.6857 32.0288 65.7474 32.2042 66.5612 32.4811C66.9617 32.6174 67.2857 32.773 67.5583 32.9072C67.5822 32.9189 67.6055 32.9304 67.6282 32.9416C67.8748 33.0632 68.0587 33.1539 68.2557 33.2237C68.3666 33.263 68.7011 33.3123 69.2836 33.339C69.8291 33.3639 70.5032 33.3667 71.2226 33.3549C72.6597 33.3313 74.2404 33.2504 75.2559 33.1829L75.2802 33.1813H75.3046C75.4164 33.1813 75.4863 33.1671 75.5262 33.1545C75.5636 33.1426 75.5766 33.1315 75.5786 33.1299C75.5806 33.1282 75.5861 33.1234 75.5946 33.1071C75.6041 33.0888 75.6177 33.0549 75.629 32.9984C75.6849 32.7201 75.6243 32.3156 75.5385 31.838C75.4446 31.3154 75.7093 30.861 76.061 30.6279C76.6738 30.2218 76.6897 29.73 76.6358 29.5639C76.536 29.2567 76.5004 28.8009 76.7595 28.3945C77.015 27.9934 77.0077 27.7366 76.9692 27.5783C76.9223 27.3856 76.7916 27.1951 76.6055 27.0129C76.1865 26.6027 76.1371 25.9763 76.3815 25.5085C76.4853 25.3098 76.4849 25.1807 76.4698 25.099C76.4522 25.0043 76.399 24.8958 76.2956 24.7799C76.1916 24.6634 76.0588 24.5649 75.936 24.4973C75.8782 24.4655 75.8314 24.4454 75.8012 24.4346H71.6447V21.7177C71.6447 19.3303 71.094 18.4448 70.641 18.1117C70.1753 17.7691 69.5268 17.7866 68.7649 17.9572ZM71.5205 16.8492C72.5845 17.6316 73.1558 19.1822 73.1558 21.7177V22.8821H75.8559C76.0206 22.8821 76.1741 22.9254 76.2801 22.9621C76.4001 23.0037 76.5256 23.0606 76.6494 23.1287C76.8948 23.2637 77.1712 23.4637 77.4096 23.731C77.6486 23.9989 77.8709 24.3594 77.9542 24.8084C78.0285 25.2094 77.9824 25.6307 77.8037 26.0511C78.0519 26.3265 78.3153 26.7094 78.4351 27.2017C78.5813 27.8023 78.4891 28.4615 78.0892 29.1381C78.3387 30.0079 78.0041 31.0795 77.0675 31.7988C77.1375 32.2101 77.2133 32.7922 77.109 33.312C77.0402 33.6548 76.8823 34.0359 76.5434 34.3247C76.2095 34.6093 75.7881 34.7293 75.3309 34.7337C74.2979 34.802 72.7043 34.8833 71.2467 34.9072C70.5134 34.9192 69.8052 34.9169 69.2164 34.89C68.6646 34.8647 68.1128 34.8154 67.7629 34.6913C67.4784 34.5905 67.2148 34.4602 66.9822 34.3451C66.9562 34.3323 66.9306 34.3197 66.9055 34.3073C66.6446 34.1789 66.3915 34.0589 66.0861 33.9549C65.4882 33.7514 64.6232 33.5878 63.1375 33.6777C62.2823 33.7294 61.5005 33.0461 61.5005 32.1127V26.9763C61.5005 26.0937 62.1838 25.4917 62.8782 25.3677C64.2745 25.1183 65.9973 23.9779 67.2538 21.1351V17.9492C67.2538 17.2539 67.7103 16.607 68.4134 16.447C69.2202 16.2634 70.4745 16.0799 71.5205 16.8492Z" fill="white"/>
<g filter="url(#filter0_d_109_11012)">
<path fill-rule="evenodd" clip-rule="evenodd" d="M107.765 19.9575V23.1378C107.765 23.3524 107.721 23.5696 107.632 23.7713C106.22 26.9715 104.136 28.5404 102.137 28.8975C102.088 28.9062 102.048 28.931 102.026 28.955C102.016 28.9658 102.013 28.9734 102.012 28.9756L102.012 34.1124C102.012 34.1124 102.013 34.1148 102.015 34.1166C102.023 34.1241 102.035 34.1289 102.049 34.1281C103.686 34.0291 104.747 34.2044 105.561 34.4814C105.962 34.6177 106.286 34.7732 106.558 34.9074C106.582 34.9191 106.605 34.9306 106.628 34.9418C106.875 35.0634 107.059 35.1541 107.256 35.224C107.367 35.2633 107.701 35.3126 108.284 35.3392C108.829 35.3642 109.503 35.3669 110.223 35.3551C111.66 35.3316 113.24 35.2506 114.256 35.1831L114.28 35.1815H114.305C114.416 35.1815 114.486 35.1674 114.526 35.1547C114.564 35.1429 114.577 35.1318 114.579 35.1301C114.581 35.1284 114.586 35.1236 114.595 35.1074C114.604 35.089 114.618 35.0551 114.629 34.9986C114.685 34.7204 114.624 34.3158 114.538 33.8383C114.445 33.3157 114.709 32.8612 115.061 32.6281C115.674 32.222 115.69 31.7302 115.636 31.5642C115.536 31.257 115.5 30.8011 115.759 30.3947C116.015 29.9937 116.008 29.7368 115.969 29.5786C115.922 29.3858 115.792 29.1953 115.605 29.0131C115.186 28.6029 115.137 27.9765 115.382 27.5087C115.485 27.3101 115.485 27.1809 115.47 27.0992C115.452 27.0046 115.399 26.8961 115.296 26.7802C115.192 26.6636 115.059 26.5651 114.936 26.4975C114.878 26.4658 114.831 26.4457 114.801 26.4349H110.645V23.7179C110.645 21.3305 110.094 20.445 109.641 20.1119C109.175 19.7694 108.527 19.7868 107.765 19.9575ZM110.521 18.8495C111.584 19.6318 112.156 21.1824 112.156 23.7179V24.8824H114.856C115.021 24.8824 115.174 24.9257 115.28 24.9624C115.4 25.0039 115.526 25.0608 115.649 25.1289C115.895 25.2639 116.171 25.464 116.41 25.7312C116.649 25.9991 116.871 26.3597 116.954 26.8087C117.029 27.2096 116.982 27.6309 116.804 28.0513C117.052 28.3268 117.315 28.7096 117.435 29.2019C117.581 29.8026 117.489 30.4618 117.089 31.1384C117.339 32.0081 117.004 33.0798 116.068 33.799C116.137 34.2104 116.213 34.7924 116.109 35.3122C116.04 35.655 115.882 36.0361 115.543 36.325C115.21 36.6096 114.788 36.7295 114.331 36.7339C113.298 36.8022 111.704 36.8836 110.247 36.9075C109.513 36.9195 108.805 36.9171 108.216 36.8902C107.665 36.865 107.113 36.8156 106.763 36.6916C106.478 36.5907 106.215 36.4604 105.982 36.3454C105.956 36.3326 105.931 36.3199 105.905 36.3075C105.645 36.1791 105.392 36.0591 105.086 35.9552C104.488 35.7517 103.623 35.5881 102.137 35.6779C101.282 35.7297 100.5 35.0463 100.5 34.1129V28.9765C100.5 28.0939 101.184 27.492 101.878 27.3679C103.274 27.1185 104.997 25.9782 106.254 23.1353V19.9495C106.254 19.2542 106.71 18.6073 107.413 18.4473C108.22 18.2637 109.474 18.0802 110.521 18.8495Z" fill="white"/>
</g>
<path fill-rule="evenodd" clip-rule="evenodd" d="M113.765 13.9575V17.1378C113.765 17.3524 113.721 17.5696 113.632 17.7713C112.219 20.9715 111.086 22.9756 111.086 22.9756C111.037 22.9844 111.022 23.476 111 23.5C111.086 21.5087 112.254 25 111 24L111.982 25.5642C111.982 25.5642 113.63 24.9982 113.632 25C113.64 25.0075 113.256 25.5 113.256 25.5C114.893 25.401 113.687 25.2231 114.5 25.5C114.901 25.6363 115.228 25.3658 115.5 25.5C115.5 25.5 115.478 26.4888 115.5 26.5C115.747 26.6216 116.05 26.758 116.247 26.8278C116.357 26.8671 115.664 28.4734 116.247 28.5C116.792 28.525 115.503 29.3669 116.222 29.3551C117.66 29.3316 119.24 29.2506 120.256 29.1831L120.28 29.1815H120.305C120.416 29.1815 120.486 29.1674 120.526 29.1547C120.564 29.1429 120.577 29.1318 120.579 29.1301C120.581 29.1284 120.586 29.1236 120.595 29.1074C120.604 29.089 120.618 29.0551 120.629 28.9986C120.685 28.7204 120.624 28.3158 120.538 27.8383C120.444 27.3157 120.709 26.8612 121.061 26.6281C121.674 26.222 121.69 25.7302 121.636 25.5642C121.536 25.257 121.5 24.8011 121.759 24.3947C122.015 23.9937 122.008 23.7368 121.969 23.5786C121.922 23.3858 121.792 23.1953 121.605 23.0131C121.186 22.6029 121.137 21.9765 121.381 21.5087C121.485 21.3101 121.485 21.1809 121.47 21.0992C121.452 21.0046 121.399 20.8961 121.296 20.7802C121.192 20.6636 121.059 20.5651 120.936 20.4975C120.878 20.4658 120.831 20.4457 120.801 20.4349H116.645V17.7179C116.645 15.3305 116.094 14.445 115.641 14.1119C115.175 13.7694 114.527 13.7868 113.765 13.9575ZM116.52 12.8495C117.584 13.6318 118.156 15.1824 118.156 17.7179V18.8824H120.856C121.02 18.8824 121.174 18.9257 121.28 18.9624C121.4 19.0039 121.526 19.0608 121.649 19.1289C121.895 19.2639 122.171 19.464 122.41 19.7312C122.649 19.9991 122.871 20.3597 122.954 20.8087C123.028 21.2096 122.982 21.6309 122.804 22.0513C123.052 22.3268 123.315 22.7096 123.435 23.2019C123.581 23.8026 123.489 24.4618 123.089 25.1384C123.339 26.0081 123.004 27.0798 122.067 27.799C122.137 28.2104 122.213 28.7924 122.109 29.3122C122.04 29.655 121.882 30.0361 121.543 30.325C121.209 30.6096 120.788 30.7295 120.331 30.7339C119.298 30.8022 117.704 30.8836 116.247 30.9075C115.513 30.9195 116.811 29.3821 116.222 29.3551C115.671 29.3299 116.35 29.124 116 29C115.715 28.8991 116.233 28.115 116 28H115.5C115.239 27.8716 116.254 26.3812 115.949 26.2772C115.351 26.0737 114.486 25.9101 113 26C112.145 26.0517 111.363 25.3684 111.363 24.435L111.086 22.9756C111.086 22.0931 109.806 20.124 110.5 20C111.897 19.7506 111.086 20 112.254 17.1353V13.9495C112.254 13.2542 112.71 12.6073 113.413 12.4473C114.22 12.2637 115.474 12.0802 116.52 12.8495Z" fill="white"/>
<defs>
<filter id="filter0_d_109_11012" x="96" y="18.2861" width="25.5005" height="27.3422" filterUnits="userSpaceOnUse" color-interpolation-filters="sRGB">
<feFlood flood-opacity="0" result="BackgroundImageFix"/>
<feColorMatrix in="SourceAlpha" type="matrix" values="0 0 0 0 0 0 0 0 0 0 0 0 0 0 0 0 0 0 127 0" result="hardAlpha"/>
<feOffset dy="4"/>
<feGaussianBlur stdDeviation="2"/>
<feComposite in2="hardAlpha" operator="out"/>
<feColorMatrix type="matrix" values="0 0 0 0 0 0 0 0 0 0 0 0 0 0 0 0 0 0 0.25 0"/>
<feBlend mode="normal" in2="BackgroundImageFix" result="effect1_dropShadow_109_11012"/>
<feBlend mode="normal" in="SourceGraphic" in2="effect1_dropShadow_109_11012" result="shape"/>
</filter>
</defs>
</svg>
