<svg width="140" height="52" viewBox="0 0 140 52" fill="none" xmlns="http://www.w3.org/2000/svg">
<rect width="140" height="52" rx="26" fill="#232323"/>
<circle cx="28" cy="26" r="17" fill="#363636" stroke="white" stroke-width="2"/>
<path fill-rule="evenodd" clip-rule="evenodd" d="M28.2351 34.0431V30.8628C28.2351 30.6482 28.2787 30.431 28.3677 30.2293C29.7804 27.0291 31.864 25.4602 33.8629 25.1031C33.9118 25.0944 33.9515 25.0696 33.9736 25.0456C33.9836 25.0348 33.9872 25.0272 33.9881 25.025L33.9884 19.8882C33.9884 19.8882 33.9866 19.8858 33.9847 19.884C33.9766 19.8765 33.965 19.8717 33.9514 19.8725C32.3143 19.9715 31.2526 19.7962 30.4388 19.5192C30.0383 19.3829 29.7143 19.2274 29.4417 19.0932C29.4178 19.0815 29.3945 19.07 29.3718 19.0588C29.1252 18.9372 28.9413 18.8465 28.7443 18.7767C28.6334 18.7374 28.2989 18.688 27.7164 18.6614C27.1709 18.6364 26.4968 18.6337 25.7774 18.6455C24.3403 18.669 22.7596 18.75 21.7441 18.8175L21.7198 18.8191H21.6954C21.5836 18.8191 21.5137 18.8332 21.4738 18.8459C21.4364 18.8577 21.4234 18.8688 21.4214 18.8705C21.4194 18.8722 21.4139 18.877 21.4054 18.8933C21.3959 18.9116 21.3823 18.9455 21.371 19.002C21.3151 19.2803 21.3757 19.6848 21.4615 20.1623C21.5554 20.6849 21.2907 21.1394 20.939 21.3725C20.3262 21.7786 20.3103 22.2704 20.3642 22.4364C20.464 22.7436 20.4996 23.1995 20.2405 23.6059C19.985 24.0069 19.9923 24.2638 20.0308 24.422C20.0777 24.6148 20.2084 24.8053 20.3945 24.9875C20.8135 25.3977 20.8629 26.0241 20.6185 26.4919C20.5147 26.6905 20.5151 26.8197 20.5302 26.9014C20.5478 26.996 20.601 27.1045 20.7044 27.2204C20.8084 27.337 20.9412 27.4355 21.064 27.5031C21.1218 27.5349 21.1686 27.555 21.1988 27.5657H25.3553V30.2827C25.3553 32.6701 25.906 33.5556 26.359 33.8887C26.8247 34.2312 27.4732 34.2138 28.2351 34.0431ZM25.4795 35.1512C24.4155 34.3688 23.8442 32.8182 23.8442 30.2827V29.1182H21.1441C20.9794 29.1182 20.8259 29.0749 20.7199 29.0382C20.5999 28.9967 20.4744 28.9398 20.3506 28.8717C20.1052 28.7367 19.8288 28.5366 19.5904 28.2694C19.3514 28.0015 19.1291 27.6409 19.0458 27.192C18.9715 26.791 19.0176 26.3697 19.1963 25.9493C18.9481 25.6739 18.6847 25.291 18.5649 24.7987C18.4187 24.198 18.5109 23.5388 18.9108 22.8622C18.6613 21.9925 18.9959 20.9208 19.9325 20.2016C19.8625 19.7902 19.7867 19.2082 19.891 18.6884C19.9598 18.3456 20.1177 17.9645 20.4566 17.6757C20.7905 17.3911 21.2119 17.2711 21.6691 17.2667C22.7021 17.1984 24.2957 17.1171 25.7533 17.0932C26.4866 17.0811 27.1948 17.0835 27.7836 17.1104C28.3354 17.1357 28.8872 17.185 29.2371 17.309C29.5216 17.4099 29.7852 17.5402 30.0178 17.6552C30.0438 17.6681 30.0694 17.6807 30.0945 17.6931C30.3554 17.8215 30.6085 17.9415 30.9139 18.0454C31.5118 18.2489 32.3768 18.4126 33.8625 18.3227C34.7177 18.2709 35.4995 18.9543 35.4995 19.8877V25.0241C35.4995 25.9067 34.8162 26.5087 34.1218 26.6327C32.7255 26.8821 31.0027 28.0224 29.7462 30.8653V34.0512C29.7462 34.7465 29.2897 35.3933 28.5866 35.5533C27.7798 35.7369 26.5255 35.9204 25.4795 35.1512Z" fill="white"/>
<circle cx="70" cy="26" r="18" fill="#363636"/>
<path fill-rule="evenodd" clip-rule="evenodd" d="M68.7649 17.957V21.1373C68.7649 21.3519 68.7213 21.5691 68.6323 21.7708C67.2196 24.971 65.136 26.5399 63.1371 26.897C63.0882 26.9057 63.0485 26.9305 63.0264 26.9545C63.0164 26.9653 63.0128 26.9729 63.0119 26.9752L63.0116 32.1119C63.0116 32.1119 63.0134 32.1143 63.0153 32.1161C63.0234 32.1236 63.035 32.1284 63.0486 32.1276C64.6857 32.0286 65.7474 32.204 66.5612 32.4809C66.9617 32.6172 67.2857 32.7727 67.5583 32.9069C67.5822 32.9187 67.6055 32.9301 67.6282 32.9413C67.8748 33.063 68.0587 33.1536 68.2557 33.2235C68.3666 33.2628 68.7011 33.3121 69.2836 33.3387C69.8291 33.3637 70.5032 33.3664 71.2226 33.3546C72.6597 33.3311 74.2404 33.2501 75.2559 33.1826L75.2802 33.181H75.3046C75.4164 33.181 75.4863 33.1669 75.5262 33.1543C75.5636 33.1424 75.5766 33.1313 75.5786 33.1296C75.5806 33.1279 75.5861 33.1231 75.5946 33.1069C75.6041 33.0885 75.6177 33.0546 75.629 32.9981C75.6849 32.7199 75.6243 32.3153 75.5385 31.8378C75.4446 31.3152 75.7093 30.8607 76.061 30.6276C76.6738 30.2215 76.6897 29.7297 76.6358 29.5637C76.536 29.2565 76.5004 28.8006 76.7595 28.3942C77.015 27.9932 77.0077 27.7363 76.9692 27.5781C76.9223 27.3854 76.7916 27.1948 76.6055 27.0126C76.1865 26.6024 76.1371 25.976 76.3815 25.5082C76.4853 25.3096 76.4849 25.1804 76.4698 25.0988C76.4522 25.0041 76.399 24.8956 76.2956 24.7797C76.1916 24.6631 76.0588 24.5646 75.936 24.4971C75.8782 24.4653 75.8314 24.4452 75.8012 24.4344H71.6447V21.7174C71.6447 19.33 71.094 18.4445 70.641 18.1114C70.1753 17.7689 69.5268 17.7863 68.7649 17.957ZM71.5205 16.849C72.5845 17.6314 73.1558 19.1819 73.1558 21.7174V22.8819H75.8559C76.0206 22.8819 76.1741 22.9252 76.2801 22.9619C76.4001 23.0035 76.5256 23.0603 76.6494 23.1284C76.8948 23.2635 77.1712 23.4635 77.4096 23.7307C77.6486 23.9986 77.8709 24.3592 77.9542 24.8082C78.0285 25.2091 77.9824 25.6304 77.8037 26.0508C78.0519 26.3263 78.3153 26.7091 78.4351 27.2014C78.5813 27.8021 78.4891 28.4613 78.0892 29.1379C78.3387 30.0076 78.0041 31.0793 77.0675 31.7985C77.1375 32.2099 77.2133 32.7919 77.109 33.3118C77.0402 33.6545 76.8823 34.0357 76.5434 34.3245C76.2095 34.6091 75.7881 34.729 75.3309 34.7334C74.2979 34.8017 72.7043 34.8831 71.2467 34.907C70.5134 34.919 69.8052 34.9166 69.2164 34.8897C68.6646 34.8645 68.1128 34.8151 67.7629 34.6911C67.4784 34.5902 67.2148 34.4599 66.9822 34.3449C66.9562 34.3321 66.9306 34.3194 66.9055 34.307C66.6446 34.1786 66.3915 34.0586 66.0861 33.9547C65.4882 33.7512 64.6232 33.5876 63.1375 33.6774C62.2823 33.7292 61.5005 33.0458 61.5005 32.1124V26.976C61.5005 26.0935 62.1838 25.4915 62.8782 25.3674C64.2745 25.118 65.9973 23.9777 67.2538 21.1348V17.949C67.2538 17.2537 67.7103 16.6068 68.4134 16.4468C69.2202 16.2632 70.4745 16.0797 71.5205 16.849Z" fill="white"/>
<circle cx="112" cy="26" r="18" fill="#363636"/>
<g filter="url(#filter0_d_109_11013)">
<path fill-rule="evenodd" clip-rule="evenodd" d="M107.765 19.9575V23.1378C107.765 23.3524 107.721 23.5696 107.632 23.7713C106.22 26.9715 104.136 28.5404 102.137 28.8975C102.088 28.9062 102.048 28.931 102.026 28.955C102.016 28.9658 102.013 28.9734 102.012 28.9756L102.012 34.1124C102.012 34.1124 102.013 34.1148 102.015 34.1166C102.023 34.1241 102.035 34.1289 102.049 34.1281C103.686 34.0291 104.747 34.2044 105.561 34.4814C105.962 34.6177 106.286 34.7732 106.558 34.9074C106.582 34.9191 106.605 34.9306 106.628 34.9418C106.875 35.0634 107.059 35.1541 107.256 35.224C107.367 35.2633 107.701 35.3126 108.284 35.3392C108.829 35.3642 109.503 35.3669 110.223 35.3551C111.66 35.3316 113.24 35.2506 114.256 35.1831L114.28 35.1815H114.305C114.416 35.1815 114.486 35.1674 114.526 35.1547C114.564 35.1429 114.577 35.1318 114.579 35.1301C114.581 35.1284 114.586 35.1236 114.595 35.1074C114.604 35.089 114.618 35.0551 114.629 34.9986C114.685 34.7204 114.624 34.3158 114.538 33.8383C114.445 33.3157 114.709 32.8612 115.061 32.6281C115.674 32.222 115.69 31.7302 115.636 31.5642C115.536 31.257 115.5 30.8011 115.759 30.3947C116.015 29.9937 116.008 29.7368 115.969 29.5786C115.922 29.3858 115.792 29.1953 115.605 29.0131C115.186 28.6029 115.137 27.9765 115.382 27.5087C115.485 27.3101 115.485 27.1809 115.47 27.0992C115.452 27.0046 115.399 26.8961 115.296 26.7802C115.192 26.6636 115.059 26.5651 114.936 26.4975C114.878 26.4658 114.831 26.4457 114.801 26.4349H110.645V23.7179C110.645 21.3305 110.094 20.445 109.641 20.1119C109.175 19.7694 108.527 19.7868 107.765 19.9575ZM110.521 18.8495C111.584 19.6318 112.156 21.1824 112.156 23.7179V24.8824H114.856C115.021 24.8824 115.174 24.9257 115.28 24.9624C115.4 25.0039 115.526 25.0608 115.649 25.1289C115.895 25.2639 116.171 25.464 116.41 25.7312C116.649 25.9991 116.871 26.3597 116.954 26.8087C117.029 27.2096 116.982 27.6309 116.804 28.0513C117.052 28.3268 117.315 28.7096 117.435 29.2019C117.581 29.8026 117.489 30.4618 117.089 31.1384C117.339 32.0081 117.004 33.0798 116.068 33.799C116.137 34.2104 116.213 34.7924 116.109 35.3122C116.04 35.655 115.882 36.0361 115.543 36.325C115.21 36.6096 114.788 36.7295 114.331 36.7339C113.298 36.8022 111.704 36.8836 110.247 36.9075C109.513 36.9195 108.805 36.9171 108.216 36.8902C107.665 36.865 107.113 36.8156 106.763 36.6916C106.478 36.5907 106.215 36.4604 105.982 36.3454C105.956 36.3326 105.931 36.3199 105.905 36.3075C105.645 36.1791 105.392 36.0591 105.086 35.9552C104.488 35.7517 103.623 35.5881 102.137 35.6779C101.282 35.7297 100.5 35.0463 100.5 34.1129V28.9765C100.5 28.0939 101.184 27.492 101.878 27.3679C103.274 27.1185 104.997 25.9782 106.254 23.1353V19.9495C106.254 19.2542 106.71 18.6073 107.413 18.4473C108.22 18.2637 109.474 18.0802 110.521 18.8495Z" fill="white"/>
</g>
<path fill-rule="evenodd" clip-rule="evenodd" d="M113.765 13.9575V17.1378C113.765 17.3524 113.721 17.5696 113.632 17.7713C112.219 20.9715 111.086 22.9756 111.086 22.9756C111.037 22.9844 111.022 23.476 111 23.5C111.086 21.5087 112.254 25 111 24L111.982 25.5642C111.982 25.5642 113.63 24.9982 113.632 25C113.64 25.0075 113.256 25.5 113.256 25.5C114.893 25.401 113.687 25.2231 114.5 25.5C114.901 25.6363 115.228 25.3658 115.5 25.5C115.5 25.5 115.478 26.4888 115.5 26.5C115.747 26.6216 116.05 26.758 116.247 26.8278C116.357 26.8671 115.664 28.4734 116.247 28.5C116.792 28.525 115.503 29.3669 116.222 29.3551C117.66 29.3316 119.24 29.2506 120.256 29.1831L120.28 29.1815H120.305C120.416 29.1815 120.486 29.1674 120.526 29.1547C120.564 29.1429 120.577 29.1318 120.579 29.1301C120.581 29.1284 120.586 29.1236 120.595 29.1074C120.604 29.089 120.618 29.0551 120.629 28.9986C120.685 28.7204 120.624 28.3158 120.538 27.8383C120.444 27.3157 120.709 26.8612 121.061 26.6281C121.674 26.222 121.69 25.7302 121.636 25.5642C121.536 25.257 121.5 24.8011 121.759 24.3947C122.015 23.9937 122.008 23.7368 121.969 23.5786C121.922 23.3858 121.792 23.1953 121.605 23.0131C121.186 22.6029 121.137 21.9765 121.381 21.5087C121.485 21.3101 121.485 21.1809 121.47 21.0992C121.452 21.0046 121.399 20.8961 121.296 20.7802C121.192 20.6636 121.059 20.5651 120.936 20.4975C120.878 20.4658 120.831 20.4457 120.801 20.4349H116.645V17.7179C116.645 15.3305 116.094 14.445 115.641 14.1119C115.175 13.7694 114.527 13.7868 113.765 13.9575ZM116.52 12.8495C117.584 13.6318 118.156 15.1824 118.156 17.7179V18.8824H120.856C121.02 18.8824 121.174 18.9257 121.28 18.9624C121.4 19.0039 121.526 19.0608 121.649 19.1289C121.895 19.2639 122.171 19.464 122.41 19.7312C122.649 19.9991 122.871 20.3597 122.954 20.8087C123.028 21.2096 122.982 21.6309 122.804 22.0513C123.052 22.3268 123.315 22.7096 123.435 23.2019C123.581 23.8026 123.489 24.4618 123.089 25.1384C123.339 26.0081 123.004 27.0798 122.067 27.799C122.137 28.2104 122.213 28.7924 122.109 29.3122C122.04 29.655 121.882 30.0361 121.543 30.325C121.209 30.6096 120.788 30.7295 120.331 30.7339C119.298 30.8022 117.704 30.8836 116.247 30.9075C115.513 30.9195 116.811 29.3821 116.222 29.3551C115.671 29.3299 116.35 29.124 116 29C115.715 28.8991 116.233 28.115 116 28H115.5C115.239 27.8716 116.254 26.3812 115.949 26.2772C115.351 26.0737 114.486 25.9101 113 26C112.145 26.0517 111.363 25.3684 111.363 24.435L111.086 22.9756C111.086 22.0931 109.806 20.124 110.5 20C111.897 19.7506 111.086 20 112.254 17.1353V13.9495C112.254 13.2542 112.71 12.6073 113.413 12.4473C114.22 12.2637 115.474 12.0802 116.52 12.8495Z" fill="white"/>
<defs>
<filter id="filter0_d_109_11013" x="96" y="18.2861" width="25.5005" height="27.3422" filterUnits="userSpaceOnUse" color-interpolation-filters="sRGB">
<feFlood flood-opacity="0" result="BackgroundImageFix"/>
<feColorMatrix in="SourceAlpha" type="matrix" values="0 0 0 0 0 0 0 0 0 0 0 0 0 0 0 0 0 0 127 0" result="hardAlpha"/>
<feOffset dy="4"/>
<feGaussianBlur stdDeviation="2"/>
<feComposite in2="hardAlpha" operator="out"/>
<feColorMatrix type="matrix" values="0 0 0 0 0 0 0 0 0 0 0 0 0 0 0 0 0 0 0.25 0"/>
<feBlend mode="normal" in2="BackgroundImageFix" result="effect1_dropShadow_109_11013"/>
<feBlend mode="normal" in="SourceGraphic" in2="effect1_dropShadow_109_11013" result="shape"/>
</filter>
</defs>
</svg>
