<svg width="40" height="40" viewBox="0 0 40 40" fill="none" xmlns="http://www.w3.org/2000/svg">
<circle cx="20" cy="20" r="19" stroke="white" stroke-opacity="0.2" stroke-width="2"/>
<path d="M20.3416 14.0657C20.2117 14.0096 20.0692 13.9888 19.9287 14.0057C19.7882 14.0226 19.6547 14.0764 19.5418 14.1617L15.7189 17.1848H12.7998C12.5877 17.1848 12.3842 17.2691 12.2342 17.4191C12.0843 17.5691 12 17.7725 12 17.9846V22.7832C12 22.9953 12.0843 23.1988 12.2342 23.3487C12.3842 23.4987 12.5877 23.583 12.7998 23.583H15.7189L19.5018 26.6061C19.6425 26.719 19.8173 26.781 19.9977 26.7821C20.1171 26.784 20.2353 26.7566 20.3416 26.7021C20.4777 26.6373 20.5927 26.5353 20.6733 26.4079C20.754 26.2806 20.797 26.133 20.7975 25.9823V14.7855C20.797 14.6348 20.754 14.4872 20.6733 14.3599C20.5927 14.2325 20.4777 14.1306 20.3416 14.0657ZM19.1979 24.3188L16.4947 22.1594C16.354 22.0465 16.1792 21.9845 15.9988 21.9835H13.5995V18.7844H15.9988C16.1792 18.7833 16.354 18.7213 16.4947 18.6084L19.1979 16.4491V24.3188ZM26.3238 20.3839L27.7634 18.9523C27.838 18.8778 27.8972 18.7892 27.9375 18.6918C27.9779 18.5944 27.9986 18.49 27.9986 18.3845C27.9986 18.279 27.9779 18.1746 27.9375 18.0772C27.8972 17.9798 27.838 17.8912 27.7634 17.8167C27.6889 17.7421 27.6003 17.6829 27.5029 17.6426C27.4055 17.6022 27.3011 17.5815 27.1956 17.5815C27.0901 17.5815 26.9857 17.6022 26.8883 17.6426C26.7909 17.6829 26.7023 17.7421 26.6278 17.8167L25.1962 19.2562L23.7646 17.8167C23.614 17.6661 23.4097 17.5815 23.1968 17.5815C22.9838 17.5815 22.7795 17.6661 22.6289 17.8167C22.4783 17.9673 22.3937 18.1715 22.3937 18.3845C22.3937 18.5975 22.4783 18.8017 22.6289 18.9523L24.0685 20.3839L22.6289 21.8155C22.554 21.8899 22.4945 21.9783 22.4539 22.0758C22.4133 22.1732 22.3923 22.2778 22.3923 22.3833C22.3923 22.4889 22.4133 22.5935 22.4539 22.6909C22.4945 22.7884 22.554 22.8768 22.6289 22.9512C22.7033 23.0261 22.7917 23.0856 22.8892 23.1262C22.9866 23.1668 23.0912 23.1877 23.1968 23.1877C23.3023 23.1877 23.4069 23.1668 23.5043 23.1262C23.6018 23.0856 23.6902 23.0261 23.7646 22.9512L25.1962 21.5116L26.6278 22.9512C26.7021 23.0261 26.7906 23.0856 26.888 23.1262C26.9855 23.1668 27.09 23.1877 27.1956 23.1877C27.3012 23.1877 27.4057 23.1668 27.5032 23.1262C27.6006 23.0856 27.6891 23.0261 27.7634 22.9512C27.8384 22.8768 27.8979 22.7884 27.9385 22.6909C27.9791 22.5935 28 22.4889 28 22.3833C28 22.2778 27.9791 22.1732 27.9385 22.0758C27.8979 21.9783 27.8384 21.8899 27.7634 21.8155L26.3238 20.3839Z" fill="white" fill-opacity="0.5"/>
</svg>
