<svg xmlns="http://www.w3.org/2000/svg" width="24" height="24" fill="none" viewBox="0 0 24 24">
  <circle cx="11.883" cy="5.654" r="3.807" stroke="#B3B3B3" stroke-width="1.692"/>
  <path stroke="#B3B3B3" stroke-width="1.692" d="M11.883 11.999c4.584 0 8.038 2.93 8.038 6.77 0 1.001-.201 1.637-.487 2.058-.28.412-.7.71-1.326.919-.64.214-1.453.322-2.451.37-.996.05-2.109.036-3.352.036-2.52 0-4.689.043-6.254-.416-.756-.221-1.285-.54-1.63-.967-.34-.419-.576-1.035-.577-2 0-3.84 3.454-6.77 8.039-6.77Z"/>
</svg>
