<svg xmlns="http://www.w3.org/2000/svg" width="24" height="24" fill="none" viewBox="0 0 24 24">
  <path fill="#fff" fill-rule="evenodd" d="M13.018 17.624v-2.62c0-.176.035-.355.109-.521 1.163-2.636 2.88-3.928 4.525-4.222a.167.167 0 0 0 .091-.047.06.06 0 0 0 .012-.017v-4.23l-.002-.004a.036.036 0 0 0-.028-.01c-1.348.082-2.223-.062-2.893-.29a6.648 6.648 0 0 1-.82-.351l-.058-.028c-.204-.1-.355-.175-.517-.233-.091-.032-.367-.073-.847-.095a27.13 27.13 0 0 0-1.596-.013c-1.184.02-2.486.086-3.322.142l-.02.001h-.02a.614.614 0 0 0-.183.022c-.03.01-.041.02-.043.02a.057.057 0 0 0-.013.02.344.344 0 0 0-.028.089c-.046.229.004.562.074.955a.99.99 0 0 1-.43.997c-.505.334-.518.74-.473.876.082.253.111.629-.102.963-.21.33-.205.542-.173.672.039.16.146.316.3.466.345.338.385.854.184 1.239-.085.164-.085.27-.073.337a.558.558 0 0 0 .144.263 1.153 1.153 0 0 0 .407.284h3.423v2.238c0 1.966.454 2.695.826 2.97.384.282.918.267 1.546.127Zm-2.27.912c-.876-.644-1.346-1.921-1.346-4.01v-.958H7.178a1.1 1.1 0 0 1-.35-.066 1.978 1.978 0 0 1-.304-.137 2.4 2.4 0 0 1-.626-.496 1.842 1.842 0 0 1-.448-.887 1.766 1.766 0 0 1 .124-1.024 2.203 2.203 0 0 1-.52-.947c-.12-.495-.045-1.038.285-1.595-.206-.716.07-1.599.841-2.191-.058-.34-.12-.818-.034-1.246a1.45 1.45 0 0 1 .466-.835c.275-.234.622-.333.998-.336a71.11 71.11 0 0 1 3.364-.143 28.08 28.08 0 0 1 1.672.014c.454.02.909.061 1.197.164.234.083.451.19.643.285l.063.03c.215.107.423.205.675.291.492.168 1.204.302 2.428.228A1.281 1.281 0 0 1 19 5.967v4.23c0 .726-.563 1.222-1.135 1.324-1.15.205-2.568 1.144-3.603 3.486v2.623c0 .573-.376 1.105-.955 1.237-.664.151-1.697.303-2.559-.33Z" clip-rule="evenodd"/>
</svg>
