<svg xmlns="http://www.w3.org/2000/svg" width="76" height="17" fill="none" viewBox="0 0 76 17">
  <path fill="#F50723" d="M0 2a2 2 0 0 1 2-2h72a2 2 0 0 1 2 2v15H0V2Z"/>
  <path fill="#fff" d="M11.69 10.81V12h-4.9V5.04h1.36v5.77h3.54Zm3.305 1.34c-.53 0-.99-.11-1.37-.34a2.21 2.21 0 0 1-.89-.95c-.21-.41-.31-.9-.31-1.47 0-.51.1-.98.31-1.39.2-.41.49-.73.87-.97.38-.23.83-.35 1.36-.35.76 0 1.34.24 1.75.73.41.49.61 1.14.61 1.95v.46h-3.62c.11.86.54 1.29 1.3 1.29.25 0 .45-.04.62-.12.16-.08.27-.18.33-.31h1.28c-.13.45-.39.81-.78 1.07-.4.27-.89.4-1.46.4Zm-.04-4.43c-.35 0-.63.1-.84.3-.21.21-.35.5-.41.88h2.38c-.01-.35-.11-.64-.3-.86-.19-.21-.47-.32-.83-.32Zm4.854 4.43c-.54 0-.97-.15-1.29-.45-.33-.29-.49-.69-.49-1.18 0-.53.19-.95.58-1.25.39-.3.93-.45 1.62-.45h1.05v-.19c0-.32-.09-.55-.26-.7-.17-.14-.41-.21-.7-.21-.25 0-.46.05-.62.15-.16.1-.26.22-.3.35h-1.22c.09-.44.32-.81.7-1.1.38-.29.87-.44 1.48-.44.67 0 1.2.17 1.59.5.39.34.58.87.58 1.58V12h-1.17v-.64c-.17.27-.39.47-.67.6-.29.13-.58.19-.88.19Zm.32-1.02c.18 0 .36-.04.54-.12.17-.08.32-.2.44-.36.11-.15.17-.35.17-.59v-.33h-.99c-.33 0-.58.06-.75.18-.18.13-.27.3-.27.53 0 .23.08.4.24.51.16.12.37.18.62.18Zm6.225.87h-1.33l-2.01-5.17h1.45l1.27 3.72 1.27-3.72h1.37L26.354 12Zm3.407-5.77c-.21 0-.4-.08-.55-.23a.741.741 0 0 1-.24-.56c0-.22.08-.41.24-.56.15-.15.34-.23.55-.23.21 0 .4.08.56.23.15.15.23.34.23.56 0 .22-.08.41-.23.56-.16.15-.35.23-.56.23ZM29.12 12V6.83h1.27V12h-1.27Zm3.868-3.04V12h-1.27V6.83h1.22v.61c.37-.51.89-.76 1.56-.76.56 0 1 .19 1.33.58.33.39.49.9.49 1.53V12h-1.27V8.98c0-.35-.08-.64-.24-.85-.17-.21-.42-.31-.75-.31-.3 0-.55.1-.76.3-.21.21-.31.49-.31.84Zm6.589 3.02c-.45 0-.84-.11-1.18-.34-.35-.23-.62-.54-.81-.94-.19-.4-.29-.86-.29-1.37 0-.51.1-.97.29-1.37.19-.4.46-.71.81-.94.34-.23.73-.34 1.18-.34.35 0 .66.07.93.22s.49.35.67.6v-.67h1.22v4.97c0 .77-.22 1.36-.65 1.78-.44.41-1.04.62-1.8.62-.65 0-1.2-.15-1.64-.45-.44-.3-.71-.68-.82-1.15h1.32c.09.15.22.27.41.36.19.09.42.14.7.14.39 0 .69-.1.9-.29.21-.19.32-.5.32-.91v-.69c-.18.24-.4.43-.66.56-.27.14-.57.21-.9.21Zm.3-1.13c.39 0 .7-.14.95-.43.25-.28.37-.65.37-1.1 0-.45-.12-.82-.37-1.1-.25-.28-.56-.42-.95-.42-.37 0-.68.14-.92.42-.25.28-.37.65-.37 1.1 0 .45.12.82.37 1.1.24.29.55.43.92.43Zm8.698 1.31c-.81 0-1.47-.19-1.98-.56-.51-.37-.85-.89-1-1.56h1.36c.09.28.27.5.56.67.28.17.63.26 1.04.26.39 0 .72-.08.98-.23.25-.15.38-.36.38-.65 0-.17-.04-.31-.11-.44-.07-.12-.21-.23-.41-.32-.2-.09-.49-.16-.87-.22l-.78-.13c-.65-.11-1.13-.31-1.45-.62-.33-.31-.49-.75-.49-1.32 0-.44.12-.82.36-1.15.23-.32.55-.57.96-.75.4-.17.85-.26 1.35-.26.73 0 1.34.17 1.83.51.49.35.8.85.91 1.51h-1.36a.964.964 0 0 0-.46-.63c-.24-.13-.54-.2-.91-.2-.41 0-.73.07-.96.22-.23.15-.35.36-.35.63 0 .24.09.43.27.56.17.13.52.24 1.05.33l.75.12c1.37.22 2.05.9 2.05 2.03 0 .47-.12.86-.35 1.19-.23.33-.55.58-.96.75-.41.18-.88.26-1.41.26Zm6.077-.01c-.51 0-.95-.12-1.34-.35-.39-.23-.7-.56-.92-.97-.22-.41-.33-.88-.33-1.42 0-.54.11-1.02.33-1.43.22-.41.53-.73.92-.96.39-.23.83-.34 1.34-.34.51 0 .96.11 1.35.34.39.23.69.55.91.96.22.41.33.89.33 1.43 0 .54-.11 1.01-.33 1.42-.22.41-.52.74-.91.97-.39.23-.84.35-1.35.35Zm0-1.13c.39 0 .7-.15.94-.44.24-.29.36-.68.36-1.17 0-.49-.12-.88-.36-1.17-.24-.29-.55-.43-.94-.43-.39 0-.7.14-.94.43s-.36.68-.36 1.17c0 .49.12.88.36 1.17.24.29.55.44.94.44Zm5.899 1.13c-.51 0-.95-.12-1.34-.35-.39-.23-.7-.56-.92-.97-.22-.41-.33-.88-.33-1.42 0-.54.11-1.02.33-1.43.22-.41.53-.73.92-.96.39-.23.83-.34 1.34-.34.51 0 .96.11 1.35.34.39.23.69.55.91.96.22.41.33.89.33 1.43 0 .54-.11 1.01-.33 1.42-.22.41-.52.74-.91.97-.39.23-.84.35-1.35.35Zm0-1.13c.39 0 .7-.15.94-.44.24-.29.36-.68.36-1.17 0-.49-.12-.88-.36-1.17-.24-.29-.55-.43-.94-.43-.39 0-.7.14-.94.43s-.36.68-.36 1.17c0 .49.12.88.36 1.17.24.29.55.44.94.44Zm4.878-2.06V12h-1.27V6.83h1.22v.61c.37-.51.89-.76 1.56-.76.56 0 1 .19 1.33.58.33.39.49.9.49 1.53V12h-1.27V8.98c0-.35-.08-.64-.24-.85-.17-.21-.42-.31-.75-.31-.3 0-.55.1-.76.3-.21.21-.31.49-.31.84Z"/>
</svg>
