<svg xmlns="http://www.w3.org/2000/svg" width="70" height="17" fill="none" viewBox="0 0 70 17">
  <path fill="#F50723" d="M0 2a2 2 0 0 1 2-2h66a2 2 0 0 1 2 2v15H0V2Z"/>
  <path fill="#fff" d="M6.79 12V5.04h1.32l3.45 4.88V5.04h1.32V12h-1.32L8.11 7.12V12H6.79Zm9.806.15c-.53 0-.99-.11-1.37-.34a2.21 2.21 0 0 1-.89-.95c-.21-.41-.31-.9-.31-1.47 0-.51.1-.98.31-1.39.2-.41.49-.73.87-.97.38-.23.83-.35 1.36-.35.76 0 1.34.24 1.75.73.41.49.61 1.14.61 1.95v.46h-3.62c.11.86.54 1.29 1.3 1.29.25 0 .45-.04.62-.12.16-.08.27-.18.33-.31h1.28c-.13.45-.39.81-.78 1.07-.4.27-.89.4-1.46.4Zm-.04-4.43c-.35 0-.63.1-.84.3-.21.21-.35.5-.41.88h2.38c-.01-.35-.11-.64-.3-.86-.19-.21-.47-.32-.83-.32ZM21.09 12l-1.65-5.17h1.31l.96 3.35.93-3.34h1.14l.97 3.35.96-3.36h1.27L25.33 12h-1.11L23.2 8.5l-1 3.5h-1.11Zm11.54.16c-.81 0-1.47-.19-1.98-.56-.51-.37-.85-.89-1-1.56h1.36c.09.28.27.5.56.67.28.17.63.26 1.04.26.39 0 .72-.08.98-.23.25-.15.38-.36.38-.65 0-.17-.04-.31-.11-.44-.07-.12-.21-.23-.41-.32-.2-.09-.49-.16-.87-.22l-.78-.13c-.65-.11-1.13-.31-1.45-.62-.33-.31-.49-.75-.49-1.32 0-.44.12-.82.36-1.15.23-.32.55-.57.96-.75.4-.17.85-.26 1.35-.26.73 0 1.34.17 1.83.51.49.35.8.85.91 1.51h-1.36a.964.964 0 0 0-.46-.63c-.24-.13-.54-.2-.91-.2-.41 0-.73.07-.96.22-.23.15-.35.36-.35.63 0 .24.09.43.27.56.17.13.52.24 1.05.33l.75.12c1.37.22 2.05.9 2.05 2.03 0 .47-.12.86-.35 1.19-.23.33-.55.58-.96.75-.41.18-.88.26-1.41.26Zm6.056-.01c-.53 0-.99-.11-1.37-.34a2.21 2.21 0 0 1-.89-.95c-.21-.41-.31-.9-.31-1.47 0-.51.1-.98.31-1.39.2-.41.49-.73.87-.97.38-.23.83-.35 1.36-.35.76 0 1.34.24 1.75.73.41.49.61 1.14.61 1.95v.46h-3.62c.11.86.54 1.29 1.3 1.29.25 0 .45-.04.62-.12.16-.08.27-.18.33-.31h1.28c-.13.45-.39.81-.78 1.07-.4.27-.89.4-1.46.4Zm-.04-4.43c-.35 0-.63.1-.84.3-.21.21-.35.5-.41.88h2.38c-.01-.35-.11-.64-.3-.86-.19-.21-.47-.32-.83-.32Zm4.854 4.43c-.54 0-.97-.15-1.29-.45-.33-.29-.49-.69-.49-1.18 0-.53.19-.95.58-1.25.39-.3.93-.45 1.62-.45h1.05v-.19c0-.32-.09-.55-.26-.7-.17-.14-.41-.21-.7-.21-.25 0-.46.05-.62.15-.16.1-.26.22-.3.35h-1.22c.09-.44.32-.81.7-1.1.38-.29.87-.44 1.48-.44.67 0 1.2.17 1.59.5.39.34.58.87.58 1.58V12h-1.17v-.64c-.17.27-.39.47-.67.6-.29.13-.58.19-.88.19Zm.32-1.02c.18 0 .36-.04.54-.12.17-.08.32-.2.44-.36.11-.15.17-.35.17-.59v-.33h-.99c-.33 0-.58.06-.75.18-.18.13-.27.3-.27.53 0 .23.08.4.24.51.16.12.37.18.62.18Zm5.62 1.02c-.64 0-1.16-.15-1.56-.45-.41-.29-.64-.68-.71-1.16h1.22c.03.15.14.29.33.4.19.11.42.17.69.17.27 0 .48-.05.64-.16a.477.477 0 0 0 .05-.78c-.12-.1-.33-.17-.63-.21l-.75-.1c-.49-.07-.86-.23-1.1-.49-.24-.25-.36-.59-.36-1 0-.34.09-.64.27-.89.18-.25.43-.45.74-.59.31-.14.67-.21 1.06-.21.41 0 .76.07 1.06.21.3.14.54.33.72.56.18.24.29.5.34.78h-1.21a.664.664 0 0 0-.3-.38c-.16-.09-.36-.13-.59-.13-.25 0-.46.05-.61.16-.15.11-.23.25-.23.42 0 .15.06.26.18.33.12.08.32.14.6.18l.74.1c.5.07.88.25 1.13.54.25.29.38.63.38 1.04 0 .34-.09.63-.27.88-.19.25-.44.44-.75.57-.32.14-.68.21-1.08.21Zm5.38 0c-.51 0-.95-.12-1.34-.35-.39-.23-.7-.56-.92-.97-.22-.41-.33-.88-.33-1.42 0-.54.11-1.02.33-1.43.22-.41.53-.73.92-.96.39-.23.83-.34 1.34-.34.51 0 .96.11 1.35.34.39.23.69.55.91.96.22.41.33.89.33 1.43 0 .54-.11 1.01-.33 1.42-.22.41-.52.74-.91.97-.39.23-.84.35-1.35.35Zm0-1.13c.39 0 .7-.15.94-.44.24-.29.36-.68.36-1.17 0-.49-.12-.88-.36-1.17-.24-.29-.55-.43-.94-.43-.39 0-.7.14-.94.43s-.36.68-.36 1.17c0 .49.12.88.36 1.17.24.29.55.44.94.44Zm4.878-2.06V12h-1.27V6.83h1.22v.61c.37-.51.89-.76 1.56-.76.56 0 1 .19 1.33.58.33.39.49.9.49 1.53V12h-1.27V8.98c0-.35-.08-.64-.24-.85-.17-.21-.42-.31-.75-.31-.3 0-.55.1-.76.3-.21.21-.31.49-.31.84Z"/>
</svg>
