<svg xmlns="http://www.w3.org/2000/svg" width="85" height="17" fill="none" viewBox="0 0 85 17">
  <path fill="#F50723" d="M0 2a2 2 0 0 1 2-2h81a2 2 0 0 1 2 2v15H0V2Z"/>
  <path fill="#fff" d="M6.79 12V5.04h2.84c.85 0 1.52.2 2 .61.47.41.71.96.71 1.65 0 .5-.13.93-.38 1.28-.26.35-.6.62-1.03.79L12.65 12h-1.58L9.54 9.59H8.15V12H6.79Zm1.36-3.59h1.3c.52 0 .9-.1 1.15-.29.24-.19.36-.46.36-.83 0-.37-.12-.64-.36-.81-.25-.17-.63-.26-1.15-.26h-1.3v2.19Zm7.43 3.74c-.53 0-.99-.11-1.37-.34a2.21 2.21 0 0 1-.89-.95c-.21-.41-.31-.9-.31-1.47 0-.51.1-.98.31-1.39.2-.41.49-.73.87-.97.38-.23.83-.35 1.36-.35.76 0 1.34.24 1.75.73.41.49.61 1.14.61 1.95v.46h-3.62c.11.86.54 1.29 1.3 1.29.25 0 .45-.04.62-.12.16-.08.27-.18.33-.31h1.28c-.13.45-.39.81-.78 1.07-.4.27-.89.4-1.46.4Zm-.04-4.43c-.35 0-.63.1-.84.3-.21.21-.35.5-.41.88h2.38c-.01-.35-.11-.64-.3-.86-.19-.21-.47-.32-.83-.32Zm5.665 4.43c-.51 0-.96-.12-1.34-.35-.39-.23-.68-.56-.89-.97-.21-.41-.32-.88-.32-1.42 0-.53.11-1 .32-1.41.21-.41.5-.74.89-.97.38-.23.83-.35 1.34-.35.43 0 .8.08 1.12.25.31.17.57.39.76.67.19.28.31.59.36.94h-1.3a.96.96 0 0 0-.29-.53c-.16-.13-.38-.2-.67-.2-.37 0-.66.14-.89.43-.23.29-.34.68-.34 1.17 0 .49.11.88.34 1.17.23.29.52.44.89.44.29 0 .51-.06.68-.19.16-.13.26-.3.3-.51h1.28c-.05.35-.17.66-.36.93-.19.27-.45.49-.76.65-.32.17-.69.25-1.12.25Zm5.489 0c-.53 0-.99-.11-1.37-.34a2.21 2.21 0 0 1-.89-.95c-.21-.41-.31-.9-.31-1.47 0-.51.1-.98.31-1.39.2-.41.49-.73.87-.97.38-.23.83-.35 1.36-.35.76 0 1.34.24 1.75.73.41.49.61 1.14.61 1.95v.46h-3.62c.11.86.54 1.29 1.3 1.29.25 0 .45-.04.62-.12.16-.08.27-.18.33-.31h1.28c-.13.45-.39.81-.78 1.07-.4.27-.89.4-1.46.4Zm-.04-4.43c-.35 0-.63.1-.84.3-.21.21-.35.5-.41.88h2.38c-.01-.35-.11-.64-.3-.86-.19-.21-.47-.32-.83-.32Zm4.684 1.24V12h-1.27V6.83h1.22v.61c.37-.51.89-.76 1.56-.76.56 0 1 .19 1.33.58.33.39.49.9.49 1.53V12h-1.27V8.98c0-.35-.08-.64-.24-.85-.17-.21-.42-.31-.75-.31-.3 0-.55.1-.76.3-.21.21-.31.49-.31.84Zm6.59 3.08c-.52 0-.92-.14-1.2-.43-.29-.28-.43-.69-.43-1.24V7.93h-.84v-1.1h.84V5.26c.44-.02.86-.09 1.27-.21v1.78h1.02v1.1h-1.02v2.3c0 .23.06.41.17.53.11.12.27.18.48.18h.37v1.1h-.66ZM39.59 12V4.75h1.27V12h-1.27Zm3.198 2.05.85-2.05-2.03-5.17h1.45l1.28 3.69 1.26-3.69h1.37l-2.82 7.22h-1.36ZM54.8 12l-.58-1.58h-2.81L50.84 12h-1.39l2.69-6.96h1.41L56.24 12H54.8Zm-2.96-2.76h1.96l-.98-2.69-.98 2.69Zm7.19 2.91c-.45 0-.84-.12-1.18-.35-.35-.23-.62-.56-.81-.97-.2-.41-.3-.88-.3-1.42 0-.54.1-1.02.3-1.43.19-.41.46-.73.81-.96.34-.23.73-.34 1.18-.34.33 0 .63.07.89.2.26.14.48.33.66.58V4.75h1.26V12h-1.22v-.68c-.17.26-.39.46-.66.61-.27.15-.58.22-.93.22Zm.3-1.13c.39 0 .7-.15.95-.44.24-.29.36-.68.36-1.17 0-.49-.12-.88-.36-1.17-.25-.29-.56-.43-.95-.43-.38 0-.69.14-.93.43-.25.29-.37.68-.37 1.17 0 .49.12.88.37 1.17.24.29.55.44.93.44Zm5.823 1.13c-.45 0-.84-.12-1.18-.35-.35-.23-.62-.56-.81-.97-.2-.41-.3-.88-.3-1.42 0-.54.1-1.02.3-1.43.19-.41.46-.73.81-.96.34-.23.73-.34 1.18-.34.33 0 .63.07.89.2.26.14.48.33.66.58V4.75h1.26V12h-1.22v-.68c-.17.26-.39.46-.66.61-.27.15-.58.22-.93.22Zm.3-1.13c.39 0 .7-.15.95-.44.24-.29.36-.68.36-1.17 0-.49-.12-.88-.36-1.17-.25-.29-.56-.43-.95-.43-.38 0-.69.14-.93.43-.25.29-.37.68-.37 1.17 0 .49.12.88.37 1.17.24.29.55.44.93.44Zm6.103 1.13c-.53 0-.99-.11-1.37-.34a2.21 2.21 0 0 1-.89-.95c-.21-.41-.31-.9-.31-1.47 0-.51.1-.98.31-1.39.2-.41.49-.73.87-.97.38-.23.83-.35 1.36-.35.76 0 1.34.24 1.75.73.41.49.61 1.14.61 1.95v.46h-3.62c.11.86.54 1.29 1.3 1.29.25 0 .45-.04.62-.12.16-.08.27-.18.33-.31h1.28c-.13.45-.39.81-.78 1.07-.4.27-.89.4-1.46.4Zm-.04-4.43c-.35 0-.63.1-.84.3-.21.21-.35.5-.41.88h2.38c-.01-.35-.11-.64-.3-.86-.19-.21-.47-.32-.83-.32Zm5.404 4.43c-.45 0-.84-.12-1.18-.35-.35-.23-.62-.56-.81-.97-.2-.41-.3-.88-.3-1.42 0-.54.1-1.02.3-1.43.19-.41.46-.73.81-.96.34-.23.73-.34 1.18-.34.33 0 .63.07.89.2.26.14.48.33.66.58V4.75h1.26V12h-1.22v-.68c-.17.26-.39.46-.66.61-.27.15-.58.22-.93.22Zm.3-1.13c.39 0 .7-.15.95-.44.24-.29.36-.68.36-1.17 0-.49-.12-.88-.36-1.17-.25-.29-.56-.43-.95-.43-.38 0-.69.14-.93.43-.25.29-.37.68-.37 1.17 0 .49.12.88.37 1.17.24.29.55.44.93.44Z"/>
</svg>
