<svg xmlns="http://www.w3.org/2000/svg" width="20" height="29" fill="none" viewBox="0 0 20 29">
  <g clip-path="url(#a)">
    <path fill="#F50723" d="M0 0h20v29L0 25V0Z"/>
    <path fill="#fff" d="M5.434 10H4.13V5.56H2.362V4.432h4.84V5.56H5.434V10Zm4.503.128c-.416 0-.8-.072-1.144-.216a2.54 2.54 0 0 1-.904-.608 2.672 2.672 0 0 1-.592-.928 3.026 3.026 0 0 1-.216-1.16c0-.424.072-.808.216-1.168.136-.352.336-.656.592-.92a2.54 2.54 0 0 1 .904-.608 2.944 2.944 0 0 1 1.144-.216c.424 0 .808.072 1.16.216.344.144.648.344.904.608s.456.568.6.92c.136.36.208.744.208 1.168 0 .424-.072.808-.208 1.16-.144.36-.344.664-.6.928s-.56.464-.904.608a3.026 3.026 0 0 1-1.16.216Zm0-1.152c.304 0 .576-.072.808-.224.232-.144.408-.352.544-.616.136-.264.2-.568.2-.92 0-.352-.064-.664-.2-.928a1.568 1.568 0 0 0-.544-.616 1.507 1.507 0 0 0-.808-.216c-.296 0-.56.072-.792.216a1.508 1.508 0 0 0-.544.616c-.136.264-.2.576-.2.928 0 .352.064.656.2.92a1.46 1.46 0 0 0 1.336.84ZM13.174 10V4.432h2.304c.456 0 .856.08 1.184.24.328.16.584.384.76.672.176.288.264.624.264 1.008s-.088.72-.264 1.008c-.176.296-.432.52-.76.68-.328.16-.728.24-1.184.24h-1V10h-1.304Zm1.304-2.824h.808c.376 0 .648-.072.824-.216.168-.136.256-.344.256-.608s-.088-.464-.256-.608c-.176-.136-.448-.208-.824-.208h-.808v1.64ZM5.563 20v-6.929l-2.067.572v-1.781l4.121-1.079V20H5.563Zm7.415.195c-.741 0-1.391-.195-1.95-.585-.559-.377-1.001-.923-1.3-1.638-.299-.702-.455-1.534-.455-2.496 0-.949.156-1.781.455-2.496.299-.715.741-1.261 1.3-1.651.559-.377 1.209-.572 1.95-.572.741 0 1.404.195 1.963.572.559.39.988.936 1.287 1.651.299.715.455 1.547.455 2.496 0 .962-.156 1.794-.455 2.496-.299.715-.728 1.261-1.287 1.638-.559.39-1.222.585-1.963.585Zm0-1.82c.507 0 .897-.26 1.183-.767.286-.507.429-1.209.429-2.132s-.143-1.638-.429-2.145c-.286-.507-.676-.754-1.183-.754s-.897.247-1.183.754c-.286.507-.429 1.222-.429 2.145s.143 1.625.429 2.132c.286.507.676.767 1.183.767Z"/>
  </g>
  <defs>
    <clipPath id="a">
      <path fill="#fff" d="M0 0h18a2 2 0 0 1 2 2v27H0V0Z"/>
    </clipPath>
  </defs>
</svg>
