<svg xmlns="http://www.w3.org/2000/svg" width="245" height="30" fill="none" viewBox="0 0 245 30">
  <rect width="27.809" height="27.809" y="1.096" fill="#F50723" rx="3.476"/>
  <path fill="#fff" d="M7.727 13.703H6.168V8.398H4.056V7.05h5.783v1.348H7.727v5.305Zm5.543.153a3.52 3.52 0 0 1-1.367-.258 3.032 3.032 0 0 1-1.08-.727 3.192 3.192 0 0 1-.707-1.109 3.615 3.615 0 0 1-.259-1.386 3.7 3.7 0 0 1 .259-1.395c.162-.421.401-.784.707-1.1a3.04 3.04 0 0 1 1.08-.726 3.52 3.52 0 0 1 1.367-.258c.507 0 .966.086 1.386.258.411.172.774.41 1.08.726.306.316.545.679.717 1.1.163.43.249.889.249 1.395 0 .507-.086.966-.249 1.386-.172.43-.41.794-.717 1.11a3.21 3.21 0 0 1-1.08.726c-.42.172-.88.258-1.386.258Zm0-1.377c.363 0 .688-.086.966-.267a1.81 1.81 0 0 0 .65-.736c.162-.316.239-.68.239-1.1 0-.42-.077-.793-.24-1.109a1.873 1.873 0 0 0-.65-.736 1.8 1.8 0 0 0-.965-.258c-.354 0-.669.086-.946.258-.277.182-.497.42-.65.736-.163.316-.24.689-.24 1.11 0 .42.077.783.24 1.099a1.748 1.748 0 0 0 1.596 1.003Zm4.03 1.224V7.05h2.753c.545 0 1.023.095 1.415.286.392.192.698.46.908.803.21.345.316.746.316 1.205 0 .459-.105.86-.316 1.204-.21.354-.516.622-.908.813-.392.191-.87.287-1.415.287h-1.195v2.055H17.3Zm1.558-3.374h.966c.45 0 .774-.087.985-.259.2-.162.305-.41.305-.726s-.105-.555-.305-.727c-.21-.162-.536-.248-.985-.248h-.966v1.96ZM9.403 23.786v-7.411l-2.21.612v-1.905l4.407-1.154v9.858H9.403Zm8.131.208c-.792 0-1.487-.208-2.085-.625-.598-.404-1.071-.987-1.39-1.752-.32-.751-.487-1.64-.487-2.67 0-1.015.166-1.905.486-2.67.32-.764.793-1.348 1.39-1.765.599-.404 1.294-.612 2.086-.612.793 0 1.502.208 2.1.612.598.417 1.057 1 1.376 1.766.32.764.487 1.654.487 2.67 0 1.028-.167 1.918-.487 2.669-.32.765-.778 1.348-1.376 1.752-.598.417-1.307.625-2.1.625Zm0-1.946c.543 0 .96-.278 1.266-.82.305-.543.459-1.294.459-2.28 0-.988-.154-1.753-.46-2.295-.305-.542-.722-.806-1.265-.806-.542 0-.96.264-1.265.806-.306.542-.459 1.307-.459 2.294 0 .987.153 1.738.459 2.28.306.543.723.82 1.265.82Zm22.121.452.626-3.525h-1.46v-2.023h1.814l.605-3.358h-2.252v-2.023h2.607l.625-3.525h2.17l-.626 3.525h3.045l.626-3.525h2.148l-.626 3.525h1.46v2.023h-1.815l-.604 3.358h2.252v2.023h-2.607l-.626 3.525h-2.169l.626-3.525h-3.045l-.626 3.525h-2.148Zm3.15-5.548h3.044l.584-3.358h-3.045l-.584 3.358Zm8.831 5.548v-2.232l5.715-5.047c.73-.646 1.252-1.189 1.523-1.606.27-.417.396-.876.396-1.397 0-.584-.209-1.085-.647-1.481-.438-.396-1.022-.605-1.772-.605-.73 0-1.314.188-1.752.542-.46.355-.751.835-.855 1.398h-2.69c.124-.855.416-1.627.896-2.294a4.989 4.989 0 0 1 1.856-1.544c.772-.375 1.627-.563 2.607-.563 1.001 0 1.898.188 2.67.563.772.396 1.397.918 1.835 1.585.438.688.647 1.46.647 2.357 0 .939-.25 1.773-.751 2.482-.522.73-1.23 1.48-2.148 2.252l-3.692 3.17h6.737v2.42H51.636Zm18.255-12.034c-.438 0-.835-.167-1.148-.48a1.548 1.548 0 0 1-.5-1.168c0-.459.167-.855.5-1.168.313-.313.71-.48 1.148-.48.438 0 .834.167 1.167.48.313.313.48.71.48 1.168 0 .459-.167.855-.48 1.168-.333.313-.73.48-1.167.48ZM68.556 22.5V11.717h2.648V22.5h-2.648Zm7.632-6.34v6.34h-2.649V11.717h2.544v1.272c.772-1.063 1.857-1.585 3.254-1.585 1.168 0 2.086.397 2.774 1.21.688.813 1.022 1.877 1.022 3.191V22.5h-2.649v-6.299c0-.73-.167-1.335-.5-1.773-.355-.437-.876-.646-1.565-.646-.625 0-1.147.209-1.585.626-.438.438-.646 1.022-.646 1.752Zm20.519 6.34H93.87V10.466h-4.839V7.984h12.514v2.482h-4.838V22.5ZM116.27 7.984 110.701 22.5h-2.961l-5.569-14.516h3.087l4.025 11.095 4.004-11.095h2.983Zm10.929 14.85c-1.689 0-3.066-.397-4.13-1.168-1.063-.772-1.772-1.857-2.085-3.254h2.836c.188.584.563 1.043 1.168 1.398.584.354 1.314.542 2.169.542.814 0 1.502-.167 2.044-.48.522-.313.793-.75.793-1.356a1.87 1.87 0 0 0-.23-.917c-.146-.25-.438-.48-.855-.668-.417-.187-1.022-.333-1.814-.459l-1.627-.27c-1.356-.23-2.357-.647-3.024-1.294-.688-.646-1.022-1.564-1.022-2.753 0-.917.25-1.71.751-2.398.479-.668 1.147-1.19 2.002-1.565.834-.354 1.773-.542 2.816-.542 1.522 0 2.794.355 3.816 1.064 1.022.73 1.669 1.773 1.898 3.15h-2.836c-.146-.585-.459-1.023-.96-1.315-.5-.27-1.126-.417-1.898-.417-.855 0-1.522.146-2.002.459-.48.313-.73.75-.73 1.314 0 .5.188.897.563 1.168.355.271 1.085.5 2.19.688l1.564.25c2.858.46 4.276 1.878 4.276 4.234 0 .98-.25 1.794-.73 2.482-.48.689-1.147 1.21-2.002 1.564-.855.376-1.836.543-2.941.543Zm7.463-.334V7.38h2.649v5.526c.772-1.001 1.835-1.502 3.149-1.502 1.168 0 2.086.397 2.774 1.21.689.813 1.022 1.877 1.022 3.191V22.5h-2.648v-6.299c0-.73-.167-1.335-.501-1.773-.355-.437-.876-.646-1.564-.646-.626 0-1.147.209-1.585.626-.438.438-.647 1.022-.647 1.752v6.34h-2.649Zm16.603.313c-1.063 0-1.981-.25-2.795-.73a5.125 5.125 0 0 1-1.918-2.023c-.459-.855-.689-1.836-.689-2.962 0-1.126.23-2.127.689-2.982a5.069 5.069 0 0 1 1.918-2.002c.814-.48 1.732-.71 2.795-.71 1.064 0 2.002.23 2.816.71.813.48 1.439 1.147 1.898 2.002.459.855.688 1.856.688 2.982 0 1.126-.229 2.107-.688 2.962-.459.855-1.085 1.543-1.898 2.023-.814.48-1.752.73-2.816.73Zm0-2.357c.814 0 1.46-.313 1.961-.918.5-.605.751-1.418.751-2.44s-.251-1.835-.751-2.44c-.501-.605-1.147-.897-1.961-.897-.813 0-1.46.292-1.96.897-.501.605-.751 1.418-.751 2.44s.25 1.835.751 2.44c.5.605 1.147.918 1.96.918Zm9.224 2.044-3.441-10.783h2.732l2.002 6.987 1.94-6.966h2.377l2.023 6.987 2.003-7.008h2.648L169.332 22.5h-2.315l-2.127-7.3-2.086 7.3h-2.315Zm17.346.313c-1.335 0-2.42-.313-3.254-.939-.855-.604-1.335-1.418-1.481-2.419h2.545c.062.313.292.605.688.834.396.23.876.355 1.439.355.563 0 1.001-.104 1.335-.334.313-.208.48-.5.48-.855 0-.313-.125-.563-.376-.772-.25-.208-.688-.354-1.314-.438l-1.564-.208c-1.022-.146-1.794-.48-2.294-1.022-.501-.522-.751-1.23-.751-2.086 0-.709.188-1.335.563-1.856a3.79 3.79 0 0 1 1.543-1.23c.647-.293 1.398-.439 2.211-.439.855 0 1.585.146 2.211.438a4.053 4.053 0 0 1 1.502 1.168c.375.5.605 1.043.709 1.627h-2.524a1.386 1.386 0 0 0-.625-.792c-.334-.188-.751-.272-1.231-.272-.521 0-.959.105-1.272.334-.313.23-.48.521-.48.876 0 .313.125.542.375.688.251.167.668.292 1.252.376l1.543.208c1.043.146 1.836.522 2.357 1.127.521.604.793 1.314.793 2.169 0 .709-.188 1.314-.564 1.835a3.728 3.728 0 0 1-1.564 1.189c-.667.292-1.418.438-2.252.438Zm17.349-.313h-2.836V10.466h-4.839V7.984h12.514v2.482h-4.839V22.5Zm9.451.313c-1.063 0-1.981-.25-2.795-.73a5.125 5.125 0 0 1-1.918-2.023c-.459-.855-.689-1.836-.689-2.962 0-1.126.23-2.127.689-2.982a5.069 5.069 0 0 1 1.918-2.002c.814-.48 1.732-.71 2.795-.71 1.064 0 2.002.23 2.816.71.813.48 1.439 1.147 1.898 2.002.459.855.688 1.856.688 2.982 0 1.126-.229 2.107-.688 2.962-.459.855-1.085 1.543-1.898 2.023-.814.48-1.752.73-2.816.73Zm0-2.357c.814 0 1.46-.313 1.961-.918.5-.605.751-1.418.751-2.44s-.251-1.835-.751-2.44c-.501-.605-1.147-.897-1.961-.897-.813 0-1.46.292-1.96.897-.501.605-.751 1.418-.751 2.44s.25 1.835.751 2.44c.5.605 1.147.918 1.96.918Zm11.242 2.357c-.938 0-1.752-.25-2.461-.73-.73-.48-1.293-1.168-1.689-2.023-.417-.855-.626-1.836-.626-2.962 0-1.126.209-2.127.626-2.982.396-.855.959-1.523 1.689-2.002.709-.48 1.523-.71 2.461-.71a4.12 4.12 0 0 1 1.856.418 4.016 4.016 0 0 1 1.377 1.21V7.378h2.628V22.5h-2.545v-1.418a3.83 3.83 0 0 1-1.376 1.272c-.563.313-1.21.459-1.94.459Zm.626-2.357c.813 0 1.46-.313 1.981-.918.501-.605.751-1.418.751-2.44s-.25-1.835-.751-2.44c-.521-.605-1.168-.897-1.981-.897-.793 0-1.439.292-1.94.897-.521.605-.772 1.418-.772 2.44s.251 1.835.772 2.44c.501.605 1.147.918 1.94.918Zm10.563 2.357c-1.126 0-2.023-.313-2.69-.939-.689-.604-1.022-1.439-1.022-2.46 0-1.106.396-1.982 1.209-2.608.814-.626 1.94-.938 3.379-.938h2.19v-.397c0-.667-.188-1.147-.542-1.46-.355-.292-.855-.438-1.46-.438-.522 0-.96.105-1.293.313-.334.209-.543.46-.626.73h-2.545c.188-.917.668-1.69 1.46-2.294.793-.605 1.815-.918 3.087-.918 1.397 0 2.503.355 3.316 1.043.814.71 1.21 1.815 1.21 3.296V22.5h-2.44v-1.335c-.355.563-.814.98-1.398 1.252a4.406 4.406 0 0 1-1.835.396Zm.667-2.127a2.77 2.77 0 0 0 1.127-.25c.354-.168.667-.418.917-.752.23-.313.355-.73.355-1.23v-.688h-2.065c-.688 0-1.21.125-1.564.375-.376.271-.563.626-.563 1.105 0 .48.167.835.5 1.064.334.25.772.376 1.293.376Zm8.044 6.09 1.773-4.276-4.234-10.783h3.024l2.669 7.696 2.628-7.696h2.858l-5.882 15.059h-2.836Z"/>
</svg>
