<svg width="72" height="72" viewBox="0 0 72 72" fill="none" xmlns="http://www.w3.org/2000/svg">
<path d="M27.7815 49.5818V36.2104L23.8854 37.4304V34.6317L30.8795 32.6224V49.5818H27.7815Z" fill="white"/>
<path d="M42.6687 49.9406C41.3544 49.9406 40.2043 49.5897 39.2186 48.8881C38.2328 48.1705 37.4662 47.1658 36.9185 45.8742C36.3865 44.5665 36.1205 43.0277 36.1205 41.2576C36.1205 39.5034 36.3865 37.9725 36.9185 36.6649C37.4662 35.3573 38.2328 34.3526 39.2186 33.651C40.2043 32.9334 41.3544 32.5746 42.6687 32.5746C43.983 32.5746 45.1331 32.9334 46.1188 33.651C47.1045 34.3526 47.8634 35.3573 48.3954 36.6649C48.943 37.9725 49.2169 39.5034 49.2169 41.2576C49.2169 43.0277 48.943 44.5665 48.3954 45.8742C47.8634 47.1658 47.1045 48.1705 46.1188 48.8881C45.1331 49.5897 43.983 49.9406 42.6687 49.9406ZM42.6687 47.118C43.7014 47.118 44.5228 46.5997 45.1331 45.5632C45.7589 44.5267 46.0719 43.0914 46.0719 41.2576C46.0719 39.4237 45.7589 37.9885 45.1331 36.952C44.5228 35.9154 43.7014 35.3972 42.6687 35.3972C41.636 35.3972 40.8067 35.9154 40.1809 36.952C39.5706 37.9885 39.2655 39.4237 39.2655 41.2576C39.2655 43.0914 39.5706 44.5267 40.1809 45.5632C40.8067 46.5997 41.636 47.118 42.6687 47.118Z" fill="white"/>
<path fill-rule="evenodd" clip-rule="evenodd" d="M43.4314 6.60929L38.1725 12.6162C40.3571 12.979 42.6794 13.5532 44.9193 14.3122C48.419 15.4982 51.8836 17.1914 54.3173 19.379C58.9741 23.5649 62.1155 29.2244 63.237 35.4486C64.3584 41.6729 63.3948 48.1007 60.5009 53.6997C57.607 59.2986 52.9508 63.744 47.28 66.3217C41.6092 68.8994 35.2529 69.4599 29.232 67.9133C23.211 66.3666 17.8748 62.8025 14.0803 57.7933C10.2857 52.7842 8.25314 46.6206 8.30888 40.2926C8.31785 39.2742 9.13519 38.456 10.1344 38.4651C11.1337 38.4743 11.9365 39.3073 11.9275 40.3257C11.8791 45.8268 13.646 51.1849 16.9447 55.5395C20.2434 59.8941 24.8823 62.9924 30.1164 64.337C35.3506 65.6815 40.8762 65.1942 45.806 62.9534C50.7357 60.7125 54.7835 56.8481 57.2992 51.9808C59.8149 47.1134 60.6526 41.5256 59.6777 36.1147C58.7028 30.7039 55.9719 25.7839 51.9236 22.145C50.0047 20.4202 47.0538 18.9223 43.7775 17.812C42.193 17.275 40.5714 16.8418 39.0104 16.5206L43.4296 21.6888L40.7014 24.1119L33.1309 15.2583C32.5319 14.5578 32.5379 13.5124 33.145 12.819L40.7313 4.15381L43.4314 6.60929ZM32.8889 6.47633L26.9526 13.9984L32.898 20.9383L30.172 23.364L23.2293 15.2598C22.6523 14.5863 22.6325 13.5879 23.1823 12.8912L30.0691 4.1648L32.8889 6.47633Z" fill="white"/>
</svg>
