<svg width="72" height="72" viewBox="0 0 72 72" fill="none" xmlns="http://www.w3.org/2000/svg">
<path d="M34.9329 14.3883C34.4968 14.1996 34.0185 14.13 33.5467 14.1866C33.0749 14.2432 32.6265 14.424 32.2475 14.7105L19.4108 24.8616H9.60882C8.89659 24.8616 8.21353 25.1446 7.7099 25.6482C7.20627 26.1518 6.92334 26.8349 6.92334 27.5471V43.66C6.92334 44.3723 7.20627 45.0553 7.7099 45.5589C8.21353 46.0626 8.89659 46.3455 9.60882 46.3455H19.4108L32.1132 56.4966C32.5857 56.8757 33.1724 57.0839 33.7782 57.0874C34.1793 57.0941 34.5759 57.0018 34.9329 56.8189C35.3899 56.6012 35.7761 56.2589 36.0469 55.8312C36.3178 55.4036 36.4622 54.9081 36.4637 54.402V16.8052C36.4622 16.299 36.3178 15.8035 36.0469 15.3759C35.7761 14.9483 35.3899 14.6059 34.9329 14.3883ZM31.0927 48.8161L22.0158 41.5653C21.5433 41.1863 20.9565 40.978 20.3508 40.9745H12.2943V30.2326H20.3508C20.9565 30.2291 21.5433 30.0209 22.0158 29.6418L31.0927 22.391V48.8161Z" fill="white"/>
<path d="M42.1863 57.0306C42.1863 57.8523 42.8533 58.5235 43.6734 58.4701C49.2015 58.1105 54.4316 55.7549 58.3726 51.8139C62.6654 47.521 65.0771 41.6987 65.0771 35.6276C65.0771 29.5566 62.6654 23.7342 58.3726 19.4414C54.4316 15.5004 49.2015 13.1448 43.6734 12.7851C42.8534 12.7318 42.1863 13.403 42.1863 14.2247C42.1863 15.0465 42.8534 15.7068 43.6729 15.7681C48.411 16.1226 52.8855 18.1628 56.2684 21.5456C60.0032 25.2804 62.1013 30.3458 62.1013 35.6276C62.1013 40.9094 60.0032 45.9749 56.2684 49.7097C52.8855 53.0925 48.411 55.1326 43.6729 55.4871C42.8534 55.5484 42.1863 56.2088 42.1863 57.0306Z" fill="white"/>
<path d="M42.1845 45.6403C42.1845 46.4305 42.8275 47.0802 43.6115 46.9817C46.1208 46.6665 48.4703 45.526 50.2776 43.7187C52.424 41.5723 53.6299 38.6611 53.6299 35.6256C53.6299 32.5901 52.424 29.6789 50.2776 27.5325C48.4703 25.7252 46.1208 24.5847 43.6115 24.2694C42.8275 24.1709 42.1845 24.8207 42.1845 25.6109C42.1845 26.401 42.8294 27.0294 43.6086 27.1605C45.357 27.4546 46.9842 28.2856 48.2543 29.5557C49.8641 31.1656 50.7685 33.349 50.7685 35.6256C50.7685 37.9022 49.8641 40.0856 48.2543 41.6954C46.9842 42.9656 45.357 43.7966 43.6086 44.0907C42.8294 44.2218 42.1845 44.8502 42.1845 45.6403Z" fill="white"/>
<path d="M42.1864 51.3384C42.1864 52.1443 42.841 52.8041 43.644 52.7357C47.6633 52.3934 51.4518 50.6435 54.3261 47.7692C57.5457 44.5496 59.3545 40.1828 59.3545 35.6295C59.3545 31.0763 57.5457 26.7095 54.3261 23.4899C51.4518 20.6156 47.6633 18.8657 43.644 18.5234C42.841 18.455 42.1864 19.1148 42.1864 19.9207C42.1864 20.7267 42.8415 21.3723 43.6432 21.4546C46.8872 21.7879 49.9356 23.2269 52.2623 25.5536C54.9346 28.2259 56.4359 31.8503 56.4359 35.6295C56.4359 39.4088 54.9346 43.0332 52.2623 45.7055C49.9356 48.0322 46.8872 49.4712 43.6432 49.8045C42.8415 49.8868 42.1864 50.5324 42.1864 51.3384Z" fill="white"/>
</svg>
