<svg width="72" height="72" viewBox="0 0 72 72" fill="none" xmlns="http://www.w3.org/2000/svg">
<path d="M26.6792 49.5818V36.2104L22.7831 37.4304V34.6317L29.7772 32.6224V49.5818H26.6792Z" fill="white"/>
<path d="M41.5664 49.9406C40.2521 49.9406 39.102 49.5897 38.1163 48.8881C37.1305 48.1705 36.3638 47.1658 35.8162 45.8742C35.2842 44.5665 35.0182 43.0277 35.0182 41.2576C35.0182 39.5034 35.2842 37.9725 35.8162 36.6649C36.3638 35.3573 37.1305 34.3526 38.1163 33.651C39.102 32.9334 40.2521 32.5746 41.5664 32.5746C42.8807 32.5746 44.0308 32.9334 45.0165 33.651C46.0022 34.3526 46.7611 35.3573 47.2931 36.6649C47.8407 37.9725 48.1146 39.5034 48.1146 41.2576C48.1146 43.0277 47.8407 44.5665 47.2931 45.8742C46.7611 47.1658 46.0022 48.1705 45.0165 48.8881C44.0308 49.5897 42.8807 49.9406 41.5664 49.9406ZM41.5664 47.118C42.5991 47.118 43.4205 46.5997 44.0308 45.5632C44.6566 44.5266 44.9696 43.0914 44.9696 41.2576C44.9696 39.4237 44.6566 37.9885 44.0308 36.952C43.4205 35.9154 42.5991 35.3971 41.5664 35.3971C40.5337 35.3971 39.7044 35.9154 39.0786 36.952C38.4683 37.9885 38.1632 39.4237 38.1632 41.2576C38.1632 43.0914 38.4683 44.5266 39.0786 45.5632C39.7044 46.5997 40.5337 47.118 41.5664 47.118Z" fill="white"/>
<path fill-rule="evenodd" clip-rule="evenodd" d="M28.5686 6.60929L33.8275 12.6162C31.6429 12.979 29.3206 13.5532 27.0807 14.3122C23.581 15.4982 20.1164 17.1914 17.6827 19.379C13.0259 23.5649 9.88448 29.2244 8.76305 35.4486C7.64161 41.6729 8.60521 48.1007 11.4991 53.6996C14.393 59.2986 19.0492 63.7439 24.72 66.3217C30.3908 68.8994 36.7471 69.4599 42.768 67.9133C48.789 66.3666 54.1252 62.8025 57.9197 57.7933C61.7143 52.7842 63.7469 46.6206 63.6911 40.2926C63.6821 39.2742 62.8648 38.456 61.8656 38.4651C60.8663 38.4743 60.0635 39.3073 60.0725 40.3257C60.121 45.8268 58.354 51.1849 55.0553 55.5395C51.7566 59.8941 47.1177 62.9924 41.8836 64.337C36.6494 65.6815 31.1238 65.1942 26.194 62.9534C21.2643 60.7125 17.2165 56.8481 14.7008 51.9808C12.1851 47.1134 11.3474 41.5256 12.3223 36.1147C13.2972 30.7039 16.0281 25.7839 20.0764 22.145C21.9953 20.4202 24.9462 18.9223 28.2225 17.812C29.807 17.275 31.4286 16.8418 32.9896 16.5206L28.5704 21.6888L31.2986 24.1119L38.8691 15.2583C39.4681 14.5578 39.4621 13.5124 38.855 12.819L31.2687 4.15381L28.5686 6.60929ZM39.1111 6.47633L45.0474 13.9984L39.102 20.9383L41.828 23.364L48.7707 15.2598C49.3477 14.5863 49.3675 13.5879 48.8177 12.8912L41.9309 4.1648L39.1111 6.47633Z" fill="white"/>
</svg>
