<svg width="72" height="72" viewBox="0 0 72 72" fill="none" xmlns="http://www.w3.org/2000/svg">
<path d="M59.7412 12.4619H12.259C10.8415 12.4619 9.69238 13.611 9.69238 15.0285V47.1111C9.69238 48.5286 10.8415 49.6777 12.259 49.6777H35.2355C35.7344 49.6777 36.2225 49.8231 36.64 50.0961L52.1866 60.2612C52.4 60.4007 52.683 60.2476 52.683 59.9926V49.6777H59.7412C61.1587 49.6777 62.3078 48.5286 62.3078 47.1111V15.0285C62.3078 13.611 61.1587 12.4619 59.7412 12.4619Z" stroke="white" stroke-width="5.13321"/>
<line x1="18" y1="24.9236" x2="30.4615" y2="24.9236" stroke="white" stroke-width="5.53846"/>
<line x1="41.5386" y1="36.0005" x2="54.0001" y2="36.0005" stroke="white" stroke-width="5.53846"/>
<path d="M36 24.9236H53.3077" stroke="white" stroke-width="5.53846"/>
<path d="M18 36.0005H35.3077" stroke="white" stroke-width="5.53846"/>
</svg>
