<svg width="72" height="72" viewBox="0 0 72 72" fill="none" xmlns="http://www.w3.org/2000/svg">
<path d="M37.0619 14.2207C36.6249 14.0317 36.1457 13.962 35.673 14.0187C35.2003 14.0754 34.7512 14.2565 34.3714 14.5436L21.5109 24.7135H11.6907C10.9772 24.7135 10.2928 24.997 9.78826 25.5015C9.2837 26.0061 9.00024 26.6904 9.00024 27.404V43.5468C9.00024 44.2604 9.2837 44.9447 9.78826 45.4493C10.2928 45.9538 10.9772 46.2373 11.6907 46.2373H21.5109L34.2369 56.4073C34.7102 56.7871 35.2981 56.9957 35.905 56.9992C36.3068 57.0058 36.7042 56.9134 37.0619 56.7301C37.5197 56.5121 37.9066 56.1691 38.1779 55.7406C38.4493 55.3122 38.594 54.8158 38.5954 54.3087V16.6421C38.594 16.135 38.4493 15.6386 38.1779 15.2102C37.9066 14.7818 37.5197 14.4388 37.0619 14.2207ZM33.2145 48.7125L24.1207 41.4483C23.6473 41.0685 23.0595 40.8599 22.4526 40.8564H14.3812V30.0945H22.4526C23.0595 30.091 23.6473 29.8824 24.1207 29.5026L33.2145 22.2383V48.7125ZM57.1866 35.4754L62.0294 30.6595C62.2803 30.4086 62.4793 30.1108 62.615 29.783C62.7508 29.4553 62.8207 29.104 62.8207 28.7492C62.8207 28.3945 62.7508 28.0432 62.615 27.7154C62.4793 27.3877 62.2803 27.0899 62.0294 26.839C61.7786 26.5881 61.4808 26.3892 61.153 26.2534C60.8252 26.1176 60.474 26.0478 60.1192 26.0478C59.7644 26.0478 59.4131 26.1176 59.0854 26.2534C58.7576 26.3892 58.4598 26.5881 58.209 26.839L53.393 31.6818L48.5771 26.839C48.0704 26.3324 47.3833 26.0478 46.6668 26.0478C45.9504 26.0478 45.2632 26.3324 44.7566 26.839C44.25 27.3456 43.9654 28.0328 43.9654 28.7492C43.9654 29.4657 44.25 30.1528 44.7566 30.6595L49.5994 35.4754L44.7566 40.2914C44.5044 40.5415 44.3043 40.839 44.1677 41.1669C44.0311 41.4948 43.9608 41.8464 43.9608 42.2016C43.9608 42.5568 44.0311 42.9084 44.1677 43.2363C44.3043 43.5641 44.5044 43.8617 44.7566 44.1118C45.0067 44.364 45.3043 44.5641 45.6321 44.7007C45.96 44.8373 46.3117 44.9077 46.6668 44.9077C47.022 44.9077 47.3737 44.8373 47.7015 44.7007C48.0294 44.5641 48.327 44.364 48.5771 44.1118L53.393 39.269L58.209 44.1118C58.4591 44.364 58.7566 44.5641 59.0845 44.7007C59.4124 44.8373 59.764 44.9077 60.1192 44.9077C60.4744 44.9077 60.826 44.8373 61.1539 44.7007C61.4817 44.5641 61.7793 44.364 62.0294 44.1118C62.2816 43.8617 62.4818 43.5641 62.6183 43.2363C62.7549 42.9084 62.8253 42.5568 62.8253 42.2016C62.8253 41.8464 62.7549 41.4948 62.6183 41.1669C62.4818 40.839 62.2816 40.5415 62.0294 40.2914L57.1866 35.4754Z" fill="white"/>
</svg>
