<svg xmlns="http://www.w3.org/2000/svg" width="64" height="22" fill="none" viewBox="0 0 64 22">
  <path stroke="#BCBCBC" d="M.5.5h63v21H.5z"/>
  <path fill="#BCBCBC" d="M7.94 17V5.864h1.504l6.352 8.736V5.864H17.3V17h-1.504L9.444 8.264V17H7.94Zm11.578-5.568c0-1.136.224-2.128.672-3.008a5.014 5.014 0 0 1 1.84-2.064c.784-.496 1.696-.736 2.704-.736 1.312 0 2.368.32 3.152.976.784.656 1.296 1.552 1.568 2.672H27.87a2.934 2.934 0 0 0-1.072-1.648c-.528-.4-1.216-.608-2.064-.608-.72 0-1.344.176-1.904.528-.56.368-.992.88-1.296 1.536-.304.656-.464 1.44-.464 2.352 0 .896.16 1.68.464 2.336.304.656.736 1.168 1.296 1.536.56.368 1.184.544 1.904.544.848 0 1.536-.192 2.08-.592.544-.4.896-.928 1.072-1.584h1.568c-.256 1.072-.784 1.936-1.568 2.592-.784.656-1.84.976-3.152.976-1.008 0-1.92-.256-2.704-.752a4.97 4.97 0 0 1-1.84-2.048c-.448-.88-.672-1.872-.672-3.008ZM31.468 13v-1.264h5.12V13h-5.12Zm11.302 4V7.448l-2.832.96V7.032l4.32-1.376V17H42.77ZM56.455 5.864v1.184L52.04 17h-1.6l4.416-9.792h-6.144V5.864h7.744Z"/>
</svg>
