<svg xmlns="http://www.w3.org/2000/svg" width="63" height="22" fill="none" viewBox="0 0 63 22">
  <path stroke="#BCBCBC" d="M.5.5h62v21H.5z"/>
  <path fill="#BCBCBC" d="M7.94 17V5.864h4.096c1.424 0 2.512.32 3.248.976.736.656 1.104 1.504 1.104 2.576s-.368 1.936-1.104 2.592c-.736.656-1.824.976-3.248.976H9.46V17H7.94Zm1.52-5.376h2.368c1.008 0 1.776-.192 2.272-.576.496-.384.736-.928.736-1.632 0-.688-.24-1.232-.736-1.616-.496-.384-1.264-.576-2.272-.576H9.46v4.4Zm13.779 5.616c-1.072 0-2.016-.256-2.832-.752-.816-.496-1.44-1.184-1.888-2.064-.464-.88-.688-1.872-.688-2.992 0-1.136.224-2.128.688-3.008a5.198 5.198 0 0 1 1.92-2.064c.816-.496 1.744-.736 2.784-.736 1.168 0 2.176.272 3.008.816a4.454 4.454 0 0 1 1.76 2.304h-1.6c-.24-.512-.624-.928-1.184-1.248-.56-.32-1.216-.48-1.984-.48-.752 0-1.408.176-1.984.544-.576.368-1.024.88-1.36 1.536-.336.656-.496 1.44-.496 2.336 0 .896.16 1.68.496 2.336.32.656.768 1.168 1.36 1.536.576.368 1.248.544 2.032.544.672 0 1.264-.144 1.792-.432a3.117 3.117 0 0 0 1.216-1.152 3.284 3.284 0 0 0 .432-1.68v-.288h-3.488v-1.36h5.008v1.392c0 .944-.208 1.776-.624 2.512a4.498 4.498 0 0 1-1.744 1.76c-.752.432-1.616.64-2.624.64Zm7.12-4.24v-1.264h5.12V13h-5.12Zm11.302 4V7.448l-2.832.96V7.032l4.32-1.376V17H41.66Zm9.845.24c-1.136 0-2.064-.256-2.784-.784-.72-.512-1.184-1.216-1.392-2.112h1.52c.176.496.48.864.944 1.136.464.272 1.024.4 1.696.4.416 0 .816-.08 1.184-.224a2.08 2.08 0 0 0 .896-.672c.24-.304.352-.672.352-1.136 0-.592-.224-1.056-.672-1.376-.464-.304-1.056-.464-1.808-.464h-1.344v-1.344h1.312c.656 0 1.184-.16 1.6-.48.4-.32.608-.768.608-1.328 0-.624-.224-1.104-.656-1.408-.448-.304-.976-.464-1.6-.464-.624 0-1.136.144-1.552.416-.432.272-.72.64-.864 1.104h-1.504a3.785 3.785 0 0 1 1.376-2.08c.688-.528 1.552-.8 2.592-.8.672 0 1.296.128 1.856.368a3.4 3.4 0 0 1 1.36 1.088c.336.464.496 1.04.496 1.712 0 .592-.16 1.104-.48 1.536-.336.432-.784.736-1.344.928.688.192 1.216.528 1.584.992.368.464.56 1.024.56 1.68 0 .704-.176 1.296-.544 1.792-.368.496-.848.88-1.44 1.136a4.885 4.885 0 0 1-1.952.384Z"/>
</svg>
