<svg xmlns="http://www.w3.org/2000/svg" width="36" height="22" fill="none" viewBox="0 0 36 22">
  <path stroke="#BCBCBC" d="M.5.5h35v21H.5z"/>
  <path fill="#BCBCBC" d="M7.94 17V5.864h4.096c1.424 0 2.512.32 3.248.976.736.656 1.104 1.504 1.104 2.576s-.368 1.936-1.104 2.592c-.736.656-1.824.976-3.248.976H9.46V17H7.94Zm1.52-5.376h2.368c1.008 0 1.776-.192 2.272-.576.496-.384.736-.928.736-1.632 0-.688-.24-1.232-.736-1.616-.496-.384-1.264-.576-2.272-.576H9.46v4.4Zm13.779 5.616c-1.072 0-2.016-.256-2.832-.752-.816-.496-1.44-1.184-1.888-2.064-.464-.88-.688-1.872-.688-2.992 0-1.136.224-2.128.688-3.008a5.198 5.198 0 0 1 1.92-2.064c.816-.496 1.744-.736 2.784-.736 1.168 0 2.176.272 3.008.816a4.454 4.454 0 0 1 1.76 2.304h-1.6c-.24-.512-.624-.928-1.184-1.248-.56-.32-1.216-.48-1.984-.48-.752 0-1.408.176-1.984.544-.576.368-1.024.88-1.36 1.536-.336.656-.496 1.44-.496 2.336 0 .896.16 1.68.496 2.336.32.656.768 1.168 1.36 1.536.576.368 1.248.544 2.032.544.672 0 1.264-.144 1.792-.432a3.117 3.117 0 0 0 1.216-1.152 3.284 3.284 0 0 0 .432-1.68v-.288h-3.488v-1.36h5.008v1.392c0 .944-.208 1.776-.624 2.512a4.498 4.498 0 0 1-1.744 1.76c-.752.432-1.616.64-2.624.64Z"/>
</svg>
