<svg xmlns="http://www.w3.org/2000/svg" width="62" height="22" fill="none" viewBox="0 0 62 22">
  <path stroke="#BCBCBC" d="M.5.5h61v21H.5z"/>
  <path fill="#BCBCBC" d="M12.612 17h-1.52V7.224H7.14v-1.36h9.424v1.36h-3.952V17ZM27.907 5.864 23.475 17h-1.552L17.491 5.864h1.648l3.6 9.312 3.568-9.312h1.6ZM29.093 13v-1.264h5.12V13h-5.12Zm11.302 4V7.448l-2.832.96V7.032l4.32-1.376V17h-1.488Zm11.03 0v-2.752h-5.633v-1.136l5.712-7.248h1.408v7.088h1.744v1.296h-1.744V17h-1.488Zm-4-4.048h4V7.88l-4 5.072Z"/>
</svg>
