<svg xmlns="http://www.w3.org/2000/svg" width="68" height="22" fill="none" viewBox="0 0 68 22">
  <path stroke="#BCBCBC" d="M.5.5h67v21H.5z"/>
  <path fill="#BCBCBC" d="M12.612 17h-1.52V7.224H7.14v-1.36h9.424v1.36h-3.952V17ZM27.907 5.864 23.475 17h-1.552L17.491 5.864h1.648l3.6 9.312 3.568-9.312h1.6ZM29.093 13v-1.264h5.12V13h-5.12Zm9.366 4h-1.488V5.864h1.664l4.032 6.48 3.968-6.48H48.3V17h-1.504V8.152l-4.16 6.768-4.176-6.736V17Zm20.395 0-1.168-2.992h-4.944L51.59 17h-1.568L54.47 5.864h1.536L60.47 17h-1.616Zm-5.6-4.352h3.904l-1.952-5.056-1.952 5.056Z"/>
</svg>
