<svg width="35" height="35" viewBox="0 0 35 35" fill="none" xmlns="http://www.w3.org/2000/svg">
<circle cx="17.5" cy="17.5" r="17" stroke="white" stroke-opacity="0.7"/>
<path d="M16.7889 10.5772C16.6365 10.5112 16.4693 10.4869 16.3045 10.5067C16.1396 10.5265 15.9829 10.5897 15.8504 10.6898L11.3642 14.2374H7.93854C7.68962 14.2374 7.4509 14.3363 7.27489 14.5123C7.09888 14.6883 7 14.9271 7 15.176V20.8072C7 21.0561 7.09888 21.2948 7.27489 21.4708C7.4509 21.6469 7.68962 21.7457 7.93854 21.7457H11.3642L15.8035 25.2934C15.9686 25.4259 16.1737 25.4987 16.3854 25.4999C16.5256 25.5022 16.6642 25.47 16.7889 25.406C16.9486 25.33 17.0836 25.2103 17.1783 25.0609C17.2729 24.9114 17.3234 24.7382 17.3239 24.5613V11.4218C17.3234 11.2449 17.2729 11.0718 17.1783 10.9223C17.0836 10.7729 16.9486 10.6532 16.7889 10.5772ZM15.4468 22.6092L12.2746 20.0751C12.1094 19.9427 11.9044 19.8699 11.6927 19.8687H8.87707V16.1145H11.6927C11.9044 16.1133 12.1094 16.0405 12.2746 15.908L15.4468 13.374V22.6092Z" fill="white"/>
<path d="M19.324 25.48C19.324 25.7672 19.5571 26.0018 19.8437 25.9831C21.7757 25.8574 23.6035 25.0342 24.9808 23.6569C26.4811 22.1566 27.324 20.1217 27.324 18C27.324 15.8783 26.4811 13.8434 24.9808 12.3431C23.6035 10.9658 21.7757 10.1426 19.8437 10.0169C19.5571 9.99824 19.324 10.2328 19.324 10.52C19.324 10.8072 19.5571 11.038 19.8435 11.0594C21.4994 11.1833 23.0632 11.8963 24.2454 13.0785C25.5507 14.3838 26.284 16.1541 26.284 18C26.284 19.8459 25.5507 21.6162 24.2454 22.9215C23.0632 24.1037 21.4994 24.8167 19.8435 24.9406C19.5571 24.962 19.324 25.1928 19.324 25.48Z" fill="white"/>
<path d="M19.324 21.5C19.324 21.7761 19.5487 22.0032 19.8227 21.9688C20.6997 21.8586 21.5208 21.46 22.1524 20.8284C22.9025 20.0783 23.324 19.0609 23.324 18C23.324 16.9391 22.9025 15.9217 22.1524 15.1716C21.5208 14.54 20.6997 14.1414 19.8227 14.0312C19.5487 13.9968 19.324 14.2239 19.324 14.5C19.324 14.7761 19.5494 14.9957 19.8217 15.0416C20.4327 15.1444 21.0014 15.4348 21.4453 15.8787C22.0079 16.4413 22.324 17.2044 22.324 18C22.324 18.7956 22.0079 19.5587 21.4453 20.1213C21.0014 20.5652 20.4327 20.8556 19.8217 20.9584C19.5494 21.0043 19.324 21.2239 19.324 21.5Z" fill="white"/>
<path d="M19.324 23.49C19.324 23.7717 19.5528 24.0023 19.8334 23.9783C21.2381 23.8587 22.5621 23.2472 23.5666 22.2426C24.6918 21.1174 25.324 19.5913 25.324 18C25.324 16.4087 24.6918 14.8826 23.5666 13.7574C22.5621 12.7528 21.2381 12.1413 19.8334 12.0217C19.5528 11.9977 19.324 12.2283 19.324 12.51C19.324 12.7917 19.5529 13.0173 19.8331 13.0461C20.9668 13.1626 22.0322 13.6655 22.8454 14.4786C23.7793 15.4125 24.304 16.6792 24.304 18C24.304 19.3208 23.7793 20.5875 22.8454 21.5214C22.0322 22.3345 20.9668 22.8374 19.8331 22.9539C19.5529 22.9827 19.324 23.2083 19.324 23.49Z" fill="white"/>
</svg>
