<svg width="35" height="35" viewBox="0 0 35 35" fill="none" xmlns="http://www.w3.org/2000/svg">
<circle cx="17.5" cy="17.5" r="17.5" fill="white" fill-opacity="0.15"/>
<circle cx="17.5" cy="17.5" r="17" stroke="white" stroke-opacity="0.7"/>
<path d="M17.7889 10.0772C17.6365 10.0112 17.4693 9.9869 17.3045 10.0067C17.1396 10.0265 16.9829 10.0897 16.8504 10.1898L12.3642 13.7374H8.93854C8.68962 13.7374 8.4509 13.8363 8.27489 14.0123C8.09888 14.1883 8 14.4271 8 14.676V20.3072C8 20.5561 8.09888 20.7948 8.27489 20.9708C8.4509 21.1469 8.68962 21.2457 8.93854 21.2457H12.3642L16.8035 24.7934C16.9686 24.9259 17.1737 24.9987 17.3854 24.9999C17.5256 25.0022 17.6642 24.97 17.7889 24.906C17.9486 24.83 18.0836 24.7103 18.1783 24.5609C18.2729 24.4114 18.3234 24.2382 18.3239 24.0613V10.9218C18.3234 10.7449 18.2729 10.5718 18.1783 10.4223C18.0836 10.2729 17.9486 10.1532 17.7889 10.0772ZM16.4468 22.1092L13.2746 19.5751C13.1094 19.4427 12.9044 19.3699 12.6927 19.3687H9.87707V15.6145H12.6927C12.9044 15.6133 13.1094 15.5405 13.2746 15.408L16.4468 12.874V22.1092ZM24.8092 17.4916L26.4986 15.8116C26.5861 15.7241 26.6555 15.6202 26.7028 15.5059C26.7502 15.3916 26.7746 15.269 26.7746 15.1453C26.7746 15.0215 26.7502 14.899 26.7028 14.7846C26.6555 14.6703 26.5861 14.5664 26.4986 14.4789C26.411 14.3914 26.3072 14.322 26.1928 14.2746C26.0785 14.2273 25.9559 14.2029 25.8322 14.2029C25.7084 14.2029 25.5859 14.2273 25.4716 14.2746C25.3572 14.322 25.2533 14.3914 25.1658 14.4789L23.4858 16.1683L21.8059 14.4789C21.6291 14.3022 21.3894 14.2029 21.1395 14.2029C20.8896 14.2029 20.6499 14.3022 20.4731 14.4789C20.2964 14.6556 20.1971 14.8953 20.1971 15.1453C20.1971 15.3952 20.2964 15.6349 20.4731 15.8116L22.1625 17.4916L20.4731 19.1716C20.3852 19.2588 20.3154 19.3626 20.2677 19.477C20.2201 19.5914 20.1955 19.714 20.1955 19.8379C20.1955 19.9618 20.2201 20.0845 20.2677 20.1989C20.3154 20.3132 20.3852 20.417 20.4731 20.5043C20.5604 20.5923 20.6642 20.6621 20.7786 20.7097C20.8929 20.7574 21.0156 20.7819 21.1395 20.7819C21.2634 20.7819 21.3861 20.7574 21.5004 20.7097C21.6148 20.6621 21.7186 20.5923 21.8059 20.5043L23.4858 18.8149L25.1658 20.5043C25.2531 20.5923 25.3569 20.6621 25.4713 20.7097C25.5856 20.7574 25.7083 20.7819 25.8322 20.7819C25.9561 20.7819 26.0788 20.7574 26.1931 20.7097C26.3075 20.6621 26.4113 20.5923 26.4986 20.5043C26.5865 20.417 26.6563 20.3132 26.704 20.1989C26.7516 20.0845 26.7762 19.9618 26.7762 19.8379C26.7762 19.714 26.7516 19.5914 26.704 19.477C26.6563 19.3626 26.5865 19.2588 26.4986 19.1716L24.8092 17.4916Z" fill="white"/>
</svg>
