<svg width="35" height="35" viewBox="0 0 35 35" fill="none" xmlns="http://www.w3.org/2000/svg">
<circle cx="17.5" cy="17.5" r="17" stroke="white" stroke-opacity="0.7"/>
<path d="M21.7507 12.1205C21.9559 12.2231 22.0585 12.4284 22.2638 12.531C22.3664 12.6336 22.3664 12.6336 22.469 12.7362L20.6219 13.0441C20.1088 13.1467 19.6984 13.6598 19.801 14.2755C19.9036 14.7886 20.3141 15.0964 20.8271 15.0964C20.9298 15.0964 20.9298 15.0964 21.0324 15.0964L25.3423 14.2755C25.8554 14.1729 26.2659 13.6598 26.1632 13.0441L25.3423 8.83677C25.2397 8.32368 24.7266 7.91321 24.1109 8.01583C23.5978 8.11845 23.1873 8.63153 23.29 9.24724L23.5978 10.9917C23.3926 10.7865 23.0847 10.4786 22.8795 10.376C22.8795 10.376 22.8795 10.376 22.7769 10.376C22.6743 10.2734 22.5716 10.1708 22.469 10.1708C22.2638 9.96556 22.0585 9.86294 21.7507 9.6577C21.4428 9.45247 21.135 9.34985 20.8271 9.14462H20.7245C20.6219 9.042 20.4167 9.042 20.2114 8.93938C19.801 8.83677 19.3905 8.73415 19.0827 8.63153C18.8774 8.63153 18.6722 8.52892 18.4669 8.52892H18.3643C18.2617 8.52892 18.0565 8.52892 17.9539 8.52892C17.7486 8.52892 17.4408 8.52892 17.2355 8.52892C12.1047 8.52892 8 12.6336 8 17.7645C8 22.8953 12.1047 27 17.2355 27C22.3664 27 26.4711 22.8953 26.4711 17.7645C26.4711 17.1488 26.0606 16.7383 25.4449 16.7383C24.8292 16.7383 24.4187 17.1488 24.4187 17.7645C24.4187 21.7665 21.2376 24.9477 17.2355 24.9477C13.2335 24.9477 10.0523 21.7665 10.0523 17.7645C10.0523 13.7624 13.2335 10.5813 17.2355 10.5813C17.4408 10.5813 17.7486 10.5813 17.9539 10.5813C18.1591 10.5813 18.2617 10.5813 18.4669 10.6839C18.6722 10.6839 18.7748 10.7865 18.98 10.7865C19.0827 10.7865 19.1853 10.8891 19.2879 10.8891C20.0062 11.0943 20.7245 11.4022 21.3402 11.9153C21.4428 12.0179 21.5455 12.0179 21.6481 12.1205C21.6481 11.9153 21.7507 12.0179 21.7507 12.1205Z" fill="white"/>
</svg>
